<svg width="447" height="303" viewBox="0 0 447 303" fill="none" xmlns="http://www.w3.org/2000/svg">
<path d="M209.8 217.4L207.881 216.838L209.8 217.4ZM187 263.8L185.433 262.557L185.425 262.567L187 263.8ZM152.6 291.2L151.779 289.376L151.772 289.379L152.6 291.2ZM66.6 291.2L65.7654 293.018L65.7724 293.021L66.6 291.2ZM32.6 263.8L31.025 265.033L32.6 263.8ZM10 217.4L8.07691 217.949L8.08062 217.962L10 217.4ZM10 85L8.08057 84.4379L8.07695 84.4505L10 85ZM32.6 38.6L31.025 37.3674L32.6 38.6ZM66.6 11.4L67.4192 13.2245L67.4276 13.2207L66.6 11.4ZM152.6 11.4L151.772 13.2207L151.783 13.2257L151.795 13.2306L152.6 11.4ZM187 38.6L185.425 39.8326L185.433 39.8431L187 38.6ZM209.8 85L207.881 85.5621L209.8 85ZM150.2 101.8L148.237 102.184L148.238 102.188L150.2 101.8ZM140 71.4L138.258 72.382L138.264 72.394L138.271 72.4058L140 71.4ZM125.8 56.4L124.87 58.1708L124.888 58.18L124.906 58.1888L125.8 56.4ZM93.4 56.4L94.3126 58.1796L94.3212 58.1752L94.3297 58.1708L93.4 56.4ZM79.4 71.4L77.6577 70.418L77.6509 70.4301L77.6442 70.4423L79.4 71.4ZM69.6 101.8L67.6373 101.416L67.6357 101.423L67.6343 101.431L69.6 101.8ZM69.6 200.8L67.6343 201.169L67.6361 201.178L67.6381 201.188L69.6 200.8ZM79.4 231.2L77.637 232.144L77.6472 232.163L77.6577 232.182L79.4 231.2ZM93.4 246.4L92.4518 248.161L92.4785 248.175L92.5056 248.189L93.4 246.4ZM125.8 246.4L126.694 248.189L126.712 248.18L126.73 248.171L125.8 246.4ZM140 231.2L138.263 230.208L138.258 230.218L140 231.2ZM150.2 200.8L148.238 200.412L150.2 200.8ZM216 151.2C216 176.532 213.28 198.4 207.881 216.838L211.719 217.962C217.253 199.067 220 176.802 220 151.2H216ZM207.881 216.838C202.47 235.315 194.973 250.535 185.433 262.557L188.567 265.043C198.494 252.532 206.197 236.818 211.719 217.962L207.881 216.838ZM185.425 262.567C176.011 274.596 164.798 283.518 151.779 289.376L153.421 293.024C167.069 286.882 178.789 277.537 188.575 265.033L185.425 262.567ZM151.772 289.379C138.849 295.253 124.801 298.2 109.6 298.2V302.2C125.333 302.2 139.951 299.147 153.428 293.021L151.772 289.379ZM109.6 298.2C94.3995 298.2 80.3506 295.253 67.4276 289.379L65.7724 293.021C79.2494 299.147 93.8672 302.2 109.6 302.2V298.2ZM67.4346 289.382C54.6816 283.526 43.5951 274.604 34.175 262.567L31.025 265.033C40.8049 277.529 52.3851 286.874 65.7654 293.018L67.4346 289.382ZM34.175 262.567C24.7648 250.543 17.3319 235.32 11.9194 216.838L8.08062 217.962C13.6015 236.814 21.2352 252.523 31.025 265.033L34.175 262.567ZM11.923 216.851C6.6538 198.408 4 176.535 4 151.2H4.76837e-07C4.76837e-07 176.798 2.67954 199.058 8.07695 217.949L11.923 216.851ZM4 151.2C4 125.865 6.6538 103.992 11.923 85.5494L8.07695 84.4505C2.67954 103.342 4.76837e-07 125.602 4.76837e-07 151.2H4ZM11.9194 85.5621C17.3319 67.0804 24.7648 51.8568 34.175 39.8326L31.025 37.3674C21.2352 49.8766 13.6015 65.5863 8.08062 84.4379L11.9194 85.5621ZM34.175 39.8326C43.5928 27.7988 54.6742 18.9468 67.4192 13.2245L65.7808 9.57544C52.3925 15.5865 40.8072 24.8678 31.025 37.3674L34.175 39.8326ZM67.4276 13.2207C80.3506 7.34663 94.3995 4.39999 109.6 4.39999V0.399994C93.8672 0.399994 79.2494 3.45335 65.7724 9.57925L67.4276 13.2207ZM109.6 4.39999C124.801 4.39999 138.849 7.34663 151.772 13.2207L153.428 9.57925C139.951 3.45335 125.333 0.399994 109.6 0.399994V4.39999ZM151.795 13.2306C164.805 18.9553 176.014 27.8072 185.425 39.8326L188.575 37.3674C178.786 24.8595 167.062 15.578 153.405 9.56935L151.795 13.2306ZM185.433 39.8431C194.973 51.8652 202.47 67.0851 207.881 85.5621L211.719 84.4379C206.197 65.5815 198.494 49.8681 188.567 37.3568L185.433 39.8431ZM207.881 85.5621C213.28 104 216 125.868 216 151.2H220C220 125.598 217.253 103.333 211.719 84.4379L207.881 85.5621ZM156 151.2C156 130.998 154.73 114.389 152.162 101.412L148.238 102.188C150.736 114.811 152 131.135 152 151.2H156ZM152.163 101.416C149.608 88.3707 146.152 77.9961 141.729 70.3942L138.271 72.4058C142.382 79.4705 145.726 89.3626 148.237 102.184L152.163 101.416ZM141.742 70.418C137.491 62.8747 132.504 57.5157 126.694 54.6111L124.906 58.1888C129.763 60.6176 134.243 65.2586 138.258 72.382L141.742 70.418ZM126.73 54.6292C121.139 51.6943 115.423 50.2 109.6 50.2V54.2C114.711 54.2 119.794 55.5057 124.87 58.1708L126.73 54.6292ZM109.6 50.2C103.777 50.2 98.0607 51.6943 92.4703 54.6292L94.3297 58.1708C99.406 55.5057 104.489 54.2 109.6 54.2V50.2ZM92.4874 54.6203C86.8166 57.5284 81.9028 62.8864 77.6577 70.418L81.1423 72.382C85.1639 65.2469 89.5834 60.6049 94.3126 58.1796L92.4874 54.6203ZM77.6442 70.4423C73.5067 78.0276 70.19 88.3833 67.6373 101.416L71.5627 102.184C74.0767 89.35 77.2933 79.439 81.1558 72.3577L77.6442 70.4423ZM67.6343 101.431C65.2027 114.4 64 131.002 64 151.2H68C68 131.131 69.1973 114.8 71.5658 102.169L67.6343 101.431ZM64 151.2C64 171.53 65.2026 188.2 67.6343 201.169L71.5658 200.431C69.1974 187.8 68 171.403 68 151.2H64ZM67.6381 201.188C70.1914 214.09 73.5074 224.436 77.637 232.144L81.163 230.256C77.2926 223.031 74.0752 213.11 71.562 200.412L67.6381 201.188ZM77.6577 232.182C81.9016 239.711 86.8057 245.121 92.4518 248.161L94.3482 244.639C89.5943 242.079 85.1651 237.355 81.1423 230.218L77.6577 232.182ZM92.5056 248.189C98.091 250.982 103.795 252.4 109.6 252.4V248.4C104.471 248.4 99.3757 247.152 94.2944 244.611L92.5056 248.189ZM109.6 252.4C115.405 252.4 121.109 250.982 126.694 248.189L124.906 244.611C119.824 247.152 114.729 248.4 109.6 248.4V252.4ZM126.73 248.171C132.515 245.134 137.492 239.723 141.742 232.182L138.258 230.218C134.241 237.344 129.752 242.066 124.87 244.629L126.73 248.171ZM141.736 232.192C146.151 224.467 149.606 214.102 152.162 201.188L148.238 200.412C145.727 213.098 142.383 222.999 138.264 230.208L141.736 232.192ZM152.162 201.188C154.73 188.211 156 171.534 156 151.2H152C152 171.399 150.736 187.789 148.238 200.412L152.162 201.188ZM444.231 252.2H446.231V250.2H444.231V252.2ZM444.231 297V299H446.231V297H444.231ZM278.231 297H276.231V299H278.231V297ZM278.231 252.2V250.2H276.231V252.2H278.231ZM334.231 252.2V254.2H336.231V252.2H334.231ZM334.431 94L336.43 94.0714L336.43 94.0689L334.431 94ZM335.031 82.4L337.027 82.5376L337.348 77.873L333.753 80.862L335.031 82.4ZM301.831 110L303.054 111.583L303.082 111.561L303.11 111.538L301.831 110ZM293.031 114.2L293.314 116.18L293.352 116.175L293.389 116.168L293.031 114.2ZM285.031 114.2L284.619 116.157L284.669 116.168L284.719 116.176L285.031 114.2ZM278.231 111.6L277.122 113.264L277.161 113.29L277.202 113.315L278.231 111.6ZM273.831 107.6L275.47 106.453L275.45 106.424L275.428 106.396L273.831 107.6ZM254.231 81.6L252.946 80.068L251.492 81.2882L252.634 82.8039L254.231 81.6ZM345.031 5.39999V3.39999H344.303L343.746 3.86798L345.031 5.39999ZM396.231 5.39999H398.231V3.39999H396.231V5.39999ZM396.231 252.2H394.231V254.2H396.231V252.2ZM442.231 252.2V297H446.231V252.2H442.231ZM444.231 295H278.231V299H444.231V295ZM280.231 297V252.2H276.231V297H280.231ZM278.231 254.2H334.231V250.2H278.231V254.2ZM336.231 252.2V105.2H332.231V252.2H336.231ZM336.231 105.2C336.231 101.49 336.297 97.7809 336.43 94.0714L332.433 93.9286C332.298 97.6857 332.231 101.443 332.231 105.2H336.231ZM336.43 94.0689C336.563 90.2252 336.761 86.3814 337.027 82.5376L333.036 82.2624C332.768 86.1519 332.567 90.0414 332.432 93.9311L336.43 94.0689ZM333.753 80.862L300.553 108.462L303.11 111.538L336.31 83.9379L333.753 80.862ZM300.608 108.417C297.868 110.535 295.224 111.768 292.673 112.232L293.389 116.168C296.705 115.565 299.928 113.998 303.054 111.583L300.608 108.417ZM292.748 112.22C290.126 112.595 287.66 112.59 285.343 112.224L284.719 116.176C287.469 116.61 290.337 116.605 293.314 116.18L292.748 112.22ZM285.443 112.243C283.104 111.75 281.05 110.959 279.26 109.885L277.202 113.315C279.413 114.641 281.892 115.583 284.619 116.157L285.443 112.243ZM279.341 109.936C277.458 108.681 276.209 107.51 275.47 106.453L272.193 108.747C273.32 110.357 275.004 111.853 277.122 113.264L279.341 109.936ZM275.428 106.396L255.828 80.3961L252.634 82.8039L272.234 108.804L275.428 106.396ZM255.517 83.132L346.317 6.93199L343.746 3.86798L252.946 80.068L255.517 83.132ZM345.031 7.39999H396.231V3.39999H345.031V7.39999ZM394.231 5.39999V252.2H398.231V5.39999H394.231ZM396.231 254.2H444.231V250.2H396.231V254.2Z" fill="#EAE151" fill-opacity="0.5"/>
</svg>
