<svg width="74" height="52" viewBox="0 0 74 52" fill="none" xmlns="http://www.w3.org/2000/svg">
<path d="M35.368 36.328L33.4486 35.7659L35.368 36.328ZM31.752 43.752L33.3205 44.993L33.327 44.9846L31.752 43.752ZM26.28 48.104L27.0992 49.9286L27.1076 49.9247L26.28 48.104ZM12.712 48.104L11.8774 49.9215L11.8851 49.9251L11.8928 49.9285L12.712 48.104ZM7.304 43.752L5.72065 44.9739L5.72716 44.9823L7.304 43.752ZM3.72 36.328L1.79691 36.8775L1.80062 36.8901L3.72 36.328ZM3.72 15.24L1.80059 14.6779L1.798 14.6869L3.72 15.24ZM7.304 7.848L8.88086 9.0783L8.88733 9.06992L7.304 7.848ZM12.712 3.496L13.5312 5.32054L13.5389 5.31707L13.5466 5.31354L12.712 3.496ZM26.28 3.496L25.4454 5.31354L25.4565 5.31865L25.4677 5.32362L26.28 3.496ZM31.752 7.848L30.177 9.08063L30.1836 9.08896L31.752 7.848ZM35.368 15.24L33.4486 15.8021L33.4497 15.8058L35.368 15.24ZM26.856 17.64L24.8987 18.051L24.9007 18.0604L24.9027 18.0697L26.856 17.64ZM25.064 12.584L23.3516 13.6173L25.064 12.584ZM22.472 9.992L21.5618 11.7729L21.5697 11.7769L21.5776 11.7808L22.472 9.992ZM16.52 9.992L15.6098 8.21113L15.6016 8.2153L15.5935 8.21955L16.52 9.992ZM13.992 12.584L12.2796 11.5507L12.273 11.5616L12.2666 11.5726L13.992 12.584ZM12.232 17.64L14.1893 18.051L12.232 17.64ZM12.232 33.928L10.2747 34.339L12.232 33.928ZM13.992 38.984L12.2666 39.9954L12.273 40.0064L12.2796 40.0173L13.992 38.984ZM16.52 41.576L15.5935 43.3484L15.6016 43.3527L15.6098 43.3569L16.52 41.576ZM22.472 41.576L21.5776 39.7871L21.5697 39.7911L21.5618 39.7951L22.472 41.576ZM26.856 33.928L24.9027 33.4983L24.9007 33.5076L24.8987 33.517L26.856 33.928ZM34.68 25.768C34.68 29.6852 34.2565 33.0073 33.4486 35.7659L37.2874 36.8901C38.2288 33.6754 38.68 29.9575 38.68 25.768H34.68ZM33.4486 35.7659C32.6281 38.5676 31.5232 40.7992 30.177 42.5194L33.327 44.9846C35.0528 42.7794 36.3586 40.0617 37.2874 36.8901L33.4486 35.7659ZM30.1836 42.511C28.8313 44.2201 27.2556 45.4636 25.4524 46.2833L27.1076 49.9247C29.5284 48.8244 31.6007 47.1665 33.3204 44.993L30.1836 42.511ZM25.4608 46.2795C23.6434 47.0955 21.6632 47.512 19.496 47.512V51.512C22.1928 51.512 24.7353 50.9899 27.0992 49.9285L25.4608 46.2795ZM19.496 47.512C17.3288 47.512 15.3486 47.0955 13.5312 46.2795L11.8928 49.9285C14.2567 50.9899 16.7992 51.512 19.496 51.512V47.512ZM13.5466 46.2865C11.767 45.4693 10.2128 44.2289 8.88084 42.5217L5.72716 44.9823C7.4245 47.1577 9.47563 48.8187 11.8774 49.9215L13.5466 46.2865ZM8.88733 42.5301C7.55812 40.8077 6.46126 38.5723 5.63938 35.7659L1.80062 36.8901C2.72808 40.057 4.02055 42.7709 5.72067 44.9739L8.88733 42.5301ZM5.64305 35.7786C4.85356 33.0154 4.44 29.6887 4.44 25.768H0.44C0.44 29.954 0.879769 33.6673 1.79695 36.8774L5.64305 35.7786ZM4.44 25.768C4.44 21.8468 4.85368 18.5325 5.642 15.7931L1.798 14.6869C0.879654 17.8782 0.44 21.5825 0.44 25.768H4.44ZM5.63938 15.8021C6.46106 12.9964 7.55654 10.7756 8.88084 9.07828L5.72716 6.61772C4.02213 8.80305 2.72827 11.5103 1.80062 14.6779L5.63938 15.8021ZM8.88733 9.06992C10.2177 7.3461 11.7652 6.11343 13.5312 5.32054L11.8928 1.67146C9.47748 2.7559 7.41968 4.42456 5.72067 6.62608L8.88733 9.06992ZM13.5466 5.31354C15.3606 4.48058 17.3353 4.056 19.496 4.056V0.0559959C16.7927 0.0559959 14.2447 0.591415 11.8774 1.67846L13.5466 5.31354ZM19.496 4.056C21.6567 4.056 23.6314 4.48058 25.4454 5.31354L27.1146 1.67846C24.7473 0.591415 22.1993 0.0559959 19.496 0.0559959V4.056ZM25.4677 5.32362C27.2575 6.11906 28.8265 7.355 30.177 9.08062L33.327 6.61538C31.6055 4.41567 29.5265 2.75027 27.0923 1.66838L25.4677 5.32362ZM30.1836 9.08896C31.5248 10.7841 32.6283 13.0011 33.4486 15.8021L37.2874 14.6779C36.3583 11.5056 35.0512 8.79454 33.3204 6.60704L30.1836 9.08896ZM33.4497 15.8058C34.2564 18.5406 34.68 21.8503 34.68 25.768H38.68C38.68 21.579 38.229 17.8701 37.2863 14.6742L33.4497 15.8058ZM29.56 25.768C29.56 22.4027 29.321 19.5363 28.8093 17.2103L24.9027 18.0697C25.3297 20.0104 25.56 22.5626 25.56 25.768H29.56ZM28.8133 17.229C28.3402 14.9761 27.6822 13.0517 26.7764 11.5507L23.3516 13.6173C23.9392 14.591 24.4758 16.0373 24.8987 18.051L28.8133 17.229ZM26.7764 11.5507C25.8948 10.0898 24.7781 8.909 23.3664 8.20314L21.5776 11.7808C22.1285 12.0563 22.7398 12.6035 23.3516 13.6173L26.7764 11.5507ZM23.3822 8.21113C22.1558 7.58427 20.8533 7.256 19.496 7.256V11.256C20.1867 11.256 20.8682 11.4184 21.5618 11.7729L23.3822 8.21113ZM19.496 7.256C18.1387 7.256 16.8362 7.58427 15.6098 8.21113L17.4302 11.7729C18.1238 11.4184 18.8053 11.256 19.496 11.256V7.256ZM15.5935 8.21955C14.2324 8.93102 13.1491 10.1098 12.2796 11.5507L15.7044 13.6173C16.3282 12.5836 16.9303 12.0343 17.4465 11.7644L15.5935 8.21955ZM12.2666 11.5726C11.3909 13.0665 10.7465 14.9823 10.2747 17.229L14.1893 18.051C14.6135 16.031 15.1425 14.5762 15.7174 13.5954L12.2666 11.5726ZM10.2747 17.229C9.7879 19.547 9.56 22.4066 9.56 25.768H13.56C13.56 22.5588 13.7801 19.9997 14.1893 18.051L10.2747 17.229ZM9.56 25.768C9.56 29.1497 9.78776 32.0203 10.2747 34.339L14.1893 33.517C13.7802 31.569 13.56 28.9996 13.56 25.768H9.56ZM10.2747 34.339C10.7465 36.5857 11.3909 38.5015 12.2666 39.9954L15.7174 37.9726C15.1425 36.9918 14.6135 35.537 14.1893 33.517L10.2747 34.339ZM12.2796 40.0173C13.1491 41.4582 14.2324 42.637 15.5935 43.3484L17.4465 39.8036C16.9303 39.5337 16.3282 38.9844 15.7044 37.9507L12.2796 40.0173ZM15.6098 43.3569C16.8362 43.9837 18.1387 44.312 19.496 44.312V40.312C18.8053 40.312 18.1238 40.1496 17.4302 39.7951L15.6098 43.3569ZM19.496 44.312C20.8533 44.312 22.1558 43.9837 23.3822 43.3569L21.5618 39.7951C20.8682 40.1496 20.1867 40.312 19.496 40.312V44.312ZM23.3664 43.3649C24.7781 42.659 25.8948 41.4782 26.7764 40.0173L23.3516 37.9507C22.7398 38.9645 22.1285 39.5117 21.5776 39.7871L23.3664 43.3649ZM26.7764 40.0173C27.6822 38.5163 28.3402 36.5919 28.8133 34.339L24.8987 33.517C24.4758 35.5307 23.9392 36.977 23.3516 37.9507L26.7764 40.0173ZM28.8093 34.3577C29.3212 32.031 29.56 29.1535 29.56 25.768H25.56C25.56 28.9958 25.3295 31.5583 24.9027 33.4983L28.8093 34.3577ZM71.469 42.504H73.469V40.504H71.469V42.504ZM71.469 49V51H73.469V49H71.469ZM45.421 49H43.421V51H45.421V49ZM45.421 42.504V40.504H43.421V42.504H45.421ZM54.637 42.504V44.504H56.637V42.504H54.637ZM54.669 15.4L52.6704 15.326V15.326L54.669 15.4ZM54.765 13.64L56.7599 13.7825L57.0943 9.10187L53.4862 12.1022L54.765 13.64ZM48.685 18.696L49.885 20.296L49.9252 20.2659L49.9638 20.2338L48.685 18.696ZM46.285 19.336L45.8269 21.2828L45.8819 21.2958L45.9374 21.3056L46.285 19.336ZM45.325 18.952L44.1866 20.5964L44.2309 20.6271L44.2768 20.6553L45.325 18.952ZM44.685 18.376L43.0801 19.5694L43.093 19.5868L43.1063 19.6039L44.685 18.376ZM41.901 14.632L40.6079 13.1063L39.1763 14.3196L40.2961 15.8254L41.901 14.632ZM56.173 2.536V0.535999H55.4395L54.8799 1.01027L56.173 2.536ZM63.437 2.536H65.437V0.535999H63.437V2.536ZM63.437 42.504H61.437V44.504H63.437V42.504ZM69.469 42.504V49H73.469V42.504H69.469ZM71.469 47H45.421V51H71.469V47ZM47.421 49V42.504H43.421V49H47.421ZM45.421 44.504H54.637V40.504H45.421V44.504ZM56.637 42.504V17.096H52.637V42.504H56.637ZM56.637 17.096C56.637 16.567 56.6472 16.0263 56.6676 15.474L52.6704 15.326C52.6482 15.9257 52.637 16.5157 52.637 17.096H56.637ZM56.6676 15.474C56.6881 14.9217 56.7188 14.3579 56.7599 13.7825L52.7701 13.4975C52.7258 14.1168 52.6926 14.7263 52.6704 15.326L56.6676 15.474ZM53.4862 12.1022L47.4062 17.1582L49.9638 20.2338L56.0438 15.1778L53.4862 12.1022ZM47.485 17.096C47.2271 17.2894 47.075 17.3364 47.025 17.3469L47.849 21.2611C48.6096 21.101 49.2895 20.7426 49.885 20.296L47.485 17.096ZM47.025 17.3469C46.8386 17.3861 46.7141 17.3808 46.6326 17.3664L45.9374 21.3056C46.5813 21.4192 47.2247 21.3925 47.849 21.2611L47.025 17.3469ZM46.7431 17.3892C46.5594 17.3459 46.444 17.2922 46.3732 17.2487L44.2768 20.6553C44.7607 20.9531 45.2853 21.1554 45.8269 21.2828L46.7431 17.3892ZM46.4634 17.3076C46.3828 17.2518 46.3287 17.2078 46.2949 17.1774C46.2608 17.1467 46.2544 17.1361 46.2637 17.1481L43.1063 19.6039C43.4182 20.0049 43.8017 20.3299 44.1866 20.5964L46.4634 17.3076ZM46.2899 17.1826L43.5059 13.4386L40.2961 15.8254L43.0801 19.5694L46.2899 17.1826ZM43.1941 16.1577L57.4661 4.06173L54.8799 1.01027L40.6079 13.1063L43.1941 16.1577ZM56.173 4.536H63.437V0.535999H56.173V4.536ZM61.437 2.536V42.504H65.437V2.536H61.437ZM63.437 44.504H71.469V40.504H63.437V44.504Z" fill="#EAE151"/>
</svg>
