<svg width="75" height="52" viewBox="0 0 75 52" fill="none" xmlns="http://www.w3.org/2000/svg">
<path d="M35.368 36.328L33.4486 35.7659L35.368 36.328ZM31.752 43.752L33.3205 44.993L33.327 44.9846L31.752 43.752ZM26.28 48.104L27.0992 49.9286L27.1076 49.9247L26.28 48.104ZM12.712 48.104L11.8774 49.9215L11.8851 49.9251L11.8928 49.9285L12.712 48.104ZM7.304 43.752L5.72065 44.9739L5.72716 44.9823L7.304 43.752ZM3.72 36.328L1.79691 36.8775L1.80062 36.8901L3.72 36.328ZM3.72 15.24L1.80059 14.6779L1.798 14.6869L3.72 15.24ZM7.304 7.848L8.88086 9.0783L8.88733 9.06992L7.304 7.848ZM12.712 3.496L13.5312 5.32054L13.5389 5.31707L13.5466 5.31354L12.712 3.496ZM26.28 3.496L25.4454 5.31354L25.4565 5.31865L25.4677 5.32362L26.28 3.496ZM31.752 7.848L30.177 9.08063L30.1836 9.08896L31.752 7.848ZM35.368 15.24L33.4486 15.8021L33.4497 15.8058L35.368 15.24ZM26.856 17.64L24.8987 18.051L24.9007 18.0604L24.9027 18.0697L26.856 17.64ZM25.064 12.584L23.3516 13.6173L25.064 12.584ZM22.472 9.992L21.5618 11.7729L21.5697 11.7769L21.5776 11.7808L22.472 9.992ZM16.52 9.992L15.6098 8.21113L15.6016 8.2153L15.5935 8.21955L16.52 9.992ZM13.992 12.584L12.2796 11.5507L12.273 11.5616L12.2666 11.5726L13.992 12.584ZM12.232 17.64L14.1893 18.051L12.232 17.64ZM12.232 33.928L10.2747 34.339L12.232 33.928ZM13.992 38.984L12.2666 39.9954L12.273 40.0064L12.2796 40.0173L13.992 38.984ZM16.52 41.576L15.5935 43.3484L15.6016 43.3527L15.6098 43.3569L16.52 41.576ZM22.472 41.576L21.5776 39.7871L21.5697 39.7911L21.5618 39.7951L22.472 41.576ZM26.856 33.928L24.9027 33.4983L24.9007 33.5076L24.8987 33.517L26.856 33.928ZM34.68 25.768C34.68 29.6852 34.2565 33.0073 33.4486 35.7659L37.2874 36.8901C38.2288 33.6754 38.68 29.9575 38.68 25.768H34.68ZM33.4486 35.7659C32.6281 38.5676 31.5232 40.7992 30.177 42.5194L33.327 44.9846C35.0528 42.7794 36.3586 40.0617 37.2874 36.8901L33.4486 35.7659ZM30.1836 42.511C28.8313 44.2201 27.2556 45.4636 25.4524 46.2833L27.1076 49.9247C29.5284 48.8244 31.6007 47.1665 33.3204 44.993L30.1836 42.511ZM25.4608 46.2795C23.6434 47.0955 21.6632 47.512 19.496 47.512V51.512C22.1928 51.512 24.7353 50.9899 27.0992 49.9285L25.4608 46.2795ZM19.496 47.512C17.3288 47.512 15.3486 47.0955 13.5312 46.2795L11.8928 49.9285C14.2567 50.9899 16.7992 51.512 19.496 51.512V47.512ZM13.5466 46.2865C11.767 45.4693 10.2128 44.2289 8.88084 42.5217L5.72716 44.9823C7.4245 47.1577 9.47563 48.8187 11.8774 49.9215L13.5466 46.2865ZM8.88733 42.5301C7.55812 40.8077 6.46126 38.5723 5.63938 35.7659L1.80062 36.8901C2.72808 40.057 4.02055 42.7709 5.72067 44.9739L8.88733 42.5301ZM5.64305 35.7786C4.85356 33.0154 4.44 29.6887 4.44 25.768H0.44C0.44 29.954 0.879769 33.6673 1.79695 36.8774L5.64305 35.7786ZM4.44 25.768C4.44 21.8468 4.85368 18.5325 5.642 15.7931L1.798 14.6869C0.879654 17.8782 0.44 21.5825 0.44 25.768H4.44ZM5.63938 15.8021C6.46106 12.9964 7.55654 10.7756 8.88084 9.07828L5.72716 6.61772C4.02213 8.80305 2.72827 11.5103 1.80062 14.6779L5.63938 15.8021ZM8.88733 9.06992C10.2177 7.3461 11.7652 6.11343 13.5312 5.32054L11.8928 1.67146C9.47748 2.7559 7.41968 4.42456 5.72067 6.62608L8.88733 9.06992ZM13.5466 5.31354C15.3606 4.48058 17.3353 4.056 19.496 4.056V0.0559959C16.7927 0.0559959 14.2447 0.591415 11.8774 1.67846L13.5466 5.31354ZM19.496 4.056C21.6567 4.056 23.6314 4.48058 25.4454 5.31354L27.1146 1.67846C24.7473 0.591415 22.1993 0.0559959 19.496 0.0559959V4.056ZM25.4677 5.32362C27.2575 6.11906 28.8265 7.355 30.177 9.08062L33.327 6.61538C31.6055 4.41567 29.5265 2.75027 27.0923 1.66838L25.4677 5.32362ZM30.1836 9.08896C31.5248 10.7841 32.6283 13.0011 33.4486 15.8021L37.2874 14.6779C36.3583 11.5056 35.0512 8.79454 33.3204 6.60704L30.1836 9.08896ZM33.4497 15.8058C34.2564 18.5406 34.68 21.8503 34.68 25.768H38.68C38.68 21.579 38.229 17.8701 37.2863 14.6742L33.4497 15.8058ZM29.56 25.768C29.56 22.4027 29.321 19.5363 28.8093 17.2103L24.9027 18.0697C25.3297 20.0104 25.56 22.5626 25.56 25.768H29.56ZM28.8133 17.229C28.3402 14.9761 27.6822 13.0517 26.7764 11.5507L23.3516 13.6173C23.9392 14.591 24.4758 16.0373 24.8987 18.051L28.8133 17.229ZM26.7764 11.5507C25.8948 10.0898 24.7781 8.909 23.3664 8.20314L21.5776 11.7808C22.1285 12.0563 22.7398 12.6035 23.3516 13.6173L26.7764 11.5507ZM23.3822 8.21113C22.1558 7.58427 20.8533 7.256 19.496 7.256V11.256C20.1867 11.256 20.8682 11.4184 21.5618 11.7729L23.3822 8.21113ZM19.496 7.256C18.1387 7.256 16.8362 7.58427 15.6098 8.21113L17.4302 11.7729C18.1238 11.4184 18.8053 11.256 19.496 11.256V7.256ZM15.5935 8.21955C14.2324 8.93102 13.1491 10.1098 12.2796 11.5507L15.7044 13.6173C16.3282 12.5836 16.9303 12.0343 17.4465 11.7644L15.5935 8.21955ZM12.2666 11.5726C11.3909 13.0665 10.7465 14.9823 10.2747 17.229L14.1893 18.051C14.6135 16.031 15.1425 14.5762 15.7174 13.5954L12.2666 11.5726ZM10.2747 17.229C9.7879 19.547 9.56 22.4066 9.56 25.768H13.56C13.56 22.5588 13.7801 19.9997 14.1893 18.051L10.2747 17.229ZM9.56 25.768C9.56 29.1497 9.78776 32.0203 10.2747 34.339L14.1893 33.517C13.7802 31.569 13.56 28.9996 13.56 25.768H9.56ZM10.2747 34.339C10.7465 36.5857 11.3909 38.5015 12.2666 39.9954L15.7174 37.9726C15.1425 36.9918 14.6135 35.537 14.1893 33.517L10.2747 34.339ZM12.2796 40.0173C13.1491 41.4582 14.2324 42.637 15.5935 43.3484L17.4465 39.8036C16.9303 39.5337 16.3282 38.9844 15.7044 37.9507L12.2796 40.0173ZM15.6098 43.3569C16.8362 43.9837 18.1387 44.312 19.496 44.312V40.312C18.8053 40.312 18.1238 40.1496 17.4302 39.7951L15.6098 43.3569ZM19.496 44.312C20.8533 44.312 22.1558 43.9837 23.3822 43.3569L21.5618 39.7951C20.8682 40.1496 20.1867 40.312 19.496 40.312V44.312ZM23.3664 43.3649C24.7781 42.659 25.8948 41.4782 26.7764 40.0173L23.3516 37.9507C22.7398 38.9645 22.1285 39.5117 21.5776 39.7871L23.3664 43.3649ZM26.7764 40.0173C27.6822 38.5163 28.3402 36.5919 28.8133 34.339L24.8987 33.517C24.4758 35.5307 23.9392 36.977 23.3516 37.9507L26.7764 40.0173ZM28.8093 34.3577C29.3212 32.031 29.56 29.1535 29.56 25.768H25.56C25.56 28.9958 25.3295 31.5583 24.9027 33.4983L28.8093 34.3577ZM71.693 41.704L70.2788 43.1182L70.2926 43.1321L70.3068 43.1457L71.693 41.704ZM72.525 49V51H74.525V49H72.525ZM40.333 49H38.333V51H40.333V49ZM40.685 44.328L42.5628 45.0165L42.5664 45.0067L42.5699 44.9968L40.685 44.328ZM41.869 42.536L43.2552 43.9777L43.2702 43.9633L43.2849 43.9486L41.869 42.536ZM55.629 28.744L54.2148 27.3298L54.2131 27.3314L55.629 28.744ZM58.733 25.384L60.2644 26.6704L60.2707 26.6629L60.2769 26.6554L58.733 25.384ZM60.973 22.216L62.7006 23.2237L62.7051 23.216L62.7095 23.2083L60.973 22.216ZM61.165 10.984L59.7369 12.3841L59.7438 12.3912L59.7508 12.3982L61.165 10.984ZM54.285 9.736L54.9175 11.6334L54.9341 11.6278L54.9506 11.622L54.285 9.736ZM52.365 10.728L51.1745 9.12088L51.16 9.13169L51.1456 9.14275L52.365 10.728ZM50.925 12.232L49.2894 11.081H49.2894L50.925 12.232ZM50.029 14.12L51.9108 14.7974L51.935 14.7302L51.9543 14.6615L50.029 14.12ZM48.461 16.264L49.4022 18.0287L49.4125 18.0232L49.4227 18.0176L48.461 16.264ZM45.709 16.488L45.3584 18.457L45.375 18.46L45.3916 18.4627L45.709 16.488ZM41.037 15.656L39.0594 15.3575L38.7687 17.2835L40.6864 17.625L41.037 15.656ZM46.477 5.448L45.2247 3.88857L46.477 5.448ZM51.309 2.92L51.894 4.83253L51.9043 4.82939L51.9145 4.82615L51.309 2.92ZM63.149 3.048L62.4566 4.9243L62.4699 4.92923L62.4834 4.93398L63.149 3.048ZM67.789 5.768L66.4376 7.24231L66.4443 7.24848L66.4511 7.25459L67.789 5.768ZM70.765 9.96L72.6033 9.17216L70.765 9.96ZM71.085 20.136L69.1904 19.4952L71.085 20.136ZM69.069 24.296L67.3884 23.2117L67.384 23.2187L69.069 24.296ZM66.157 28.104L64.6679 26.7689L66.157 28.104ZM62.637 31.848L61.2107 30.4459L61.207 30.4498L62.637 31.848ZM52.781 41.928L51.351 40.5298L45.9935 46.009L53.3453 43.8467L52.781 41.928ZM56.013 41.192L56.329 43.1669L56.3482 43.1638L56.3673 43.1604L56.013 41.192ZM69.453 42.904C70.0345 42.904 70.2158 43.0552 70.2788 43.1182L73.1072 40.2898C72.1035 39.2861 70.7915 38.904 69.453 38.904V42.904ZM70.3068 43.1457C70.4142 43.249 70.525 43.4039 70.525 43.816H74.525C74.525 42.4787 74.0811 41.2257 73.0792 40.2623L70.3068 43.1457ZM70.525 43.816V49H74.525V43.816H70.525ZM72.525 47H40.333V51H72.525V47ZM42.333 49V46.12H38.333V49H42.333ZM42.333 46.12C42.333 45.8471 42.3911 45.4847 42.5628 45.0165L38.8072 43.6395C38.5096 44.4513 38.333 45.2836 38.333 46.12H42.333ZM42.5699 44.9968C42.6909 44.6558 42.9026 44.3168 43.2552 43.9777L40.4828 41.0943C39.7261 41.8219 39.1485 42.6775 38.8001 43.6592L42.5699 44.9968ZM43.2849 43.9486L57.0449 30.1566L54.2131 27.3314L40.4531 41.1234L43.2849 43.9486ZM57.0432 30.1582C58.25 28.9514 59.325 27.7887 60.2644 26.6704L57.2016 24.0976C56.349 25.1126 55.3547 26.1899 54.2148 27.3298L57.0432 30.1582ZM60.2769 26.6554C61.2287 25.4996 62.0402 24.3558 62.7006 23.2237L59.2454 21.2083C58.7111 22.1242 58.0293 23.0924 57.1891 24.1126L60.2769 26.6554ZM62.7095 23.2083C63.3813 22.0326 63.8963 20.8252 64.2429 19.5873L60.3911 18.5087C60.1404 19.4041 59.7593 20.3088 59.2365 21.2237L62.7095 23.2083ZM64.2429 19.5873C64.5936 18.335 64.765 17.0328 64.765 15.688H60.765C60.765 16.6898 60.6378 17.6277 60.3911 18.5087L64.2429 19.5873ZM64.765 15.688C64.765 13.2899 64.1428 11.1334 62.5792 9.56979L59.7508 12.3982C60.3205 12.9679 60.765 13.9474 60.765 15.688H64.765ZM62.5931 9.58385C61.0541 8.01404 58.9766 7.352 56.653 7.352V11.352C58.2121 11.352 59.1426 11.778 59.7369 12.3841L62.5931 9.58385ZM56.653 7.352C55.5976 7.352 54.5806 7.51076 53.6194 7.85001L54.9506 11.622C55.4401 11.4492 56.0017 11.352 56.653 11.352V7.352ZM53.6525 7.83863C52.7555 8.13764 51.926 8.56425 51.1745 9.12088L53.5555 12.3351C53.956 12.0384 54.4065 11.8037 54.9175 11.6334L53.6525 7.83863ZM51.1456 9.14275C50.43 9.69317 49.81 10.3412 49.2894 11.081L52.5606 13.383C52.8507 12.9708 53.1906 12.6162 53.5844 12.3132L51.1456 9.14275ZM49.2894 11.081C48.7528 11.8436 48.3566 12.6793 48.1037 13.5785L51.9543 14.6615C52.0854 14.1954 52.2866 13.7724 52.5606 13.383L49.2894 11.081ZM48.1472 13.4426C47.8478 14.2742 47.5624 14.4758 47.4993 14.5104L49.4227 18.0176C50.6823 17.3269 51.4422 16.0991 51.9108 14.7974L48.1472 13.4426ZM47.5198 14.4993C47.4476 14.5378 47.0523 14.6782 46.0264 14.5133L45.3916 18.4627C46.755 18.6818 48.1944 18.6729 49.4022 18.0287L47.5198 14.4993ZM46.0597 14.519L41.3876 13.687L40.6864 17.625L45.3584 18.457L46.0597 14.519ZM43.0146 15.9545C43.3267 13.8867 43.9024 12.1352 44.7094 10.6678L41.2046 8.74016C40.1343 10.6861 39.4299 12.9026 39.0594 15.3575L43.0146 15.9545ZM44.7094 10.6678C45.532 9.17232 46.541 7.96169 47.7293 7.00743L45.2247 3.88857C43.597 5.19564 42.2594 6.82235 41.2046 8.74016L44.7094 10.6678ZM47.7293 7.00743C48.9295 6.04364 50.3111 5.3167 51.894 4.83253L50.724 1.00747C48.6802 1.63263 46.8405 2.59102 45.2247 3.88857L47.7293 7.00743ZM51.9145 4.82615C53.5137 4.31816 55.2596 4.056 57.165 4.056V0.0559959C54.889 0.0559959 52.731 0.369831 50.7035 1.01385L51.9145 4.82615ZM57.165 4.056C59.161 4.056 60.9169 4.35609 62.4566 4.9243L63.8414 1.17169C61.7971 0.41724 59.5636 0.0559959 57.165 0.0559959V4.056ZM62.4834 4.93398C64.0701 5.494 65.3764 6.26962 66.4376 7.24231L69.1404 4.29369C67.6416 2.91971 65.8546 1.882 63.8146 1.16202L62.4834 4.93398ZM66.4511 7.25459C67.5074 8.2053 68.3325 9.36126 68.9267 10.7478L72.6033 9.17216C71.7895 7.27341 70.6306 5.6347 69.1269 4.28141L66.4511 7.25459ZM68.9267 10.7478C69.5128 12.1154 69.821 13.6569 69.821 15.4H73.821C73.821 13.1751 73.4252 11.0899 72.6033 9.17216L68.9267 10.7478ZM69.821 15.4C69.821 16.9135 69.6038 18.2731 69.1904 19.4952L72.9796 20.7768C73.5476 19.0975 73.821 17.2999 73.821 15.4H69.821ZM69.1904 19.4952C68.754 20.7855 68.1549 22.0236 67.3884 23.2117L70.7496 25.3803C71.6897 23.923 72.4347 22.3878 72.9796 20.7768L69.1904 19.4952ZM67.384 23.2187C66.6144 24.4224 65.7104 25.606 64.6679 26.7689L67.6461 29.4391C68.8222 28.1273 69.8596 26.7723 70.754 25.3733L67.384 23.2187ZM64.6679 26.7689C63.5802 27.9821 62.4279 29.2078 61.2108 30.4459L64.0633 33.2501C65.3207 31.9709 66.5151 30.7006 67.6461 29.4391L64.6679 26.7689ZM61.207 30.4498L51.351 40.5298L54.211 43.3262L64.067 33.2462L61.207 30.4498ZM53.3453 43.8467C54.3559 43.5495 55.3503 43.3235 56.329 43.1669L55.697 39.2171C54.5424 39.4019 53.3821 39.6665 52.2167 40.0093L53.3453 43.8467ZM56.3673 43.1604C57.3345 42.9863 58.2177 42.904 59.021 42.904V38.904C57.947 38.904 56.8248 39.0137 55.6587 39.2236L56.3673 43.1604ZM59.021 42.904H69.453V38.904H59.021V42.904Z" fill="#EAE151"/>
</svg>
