<svg width="75" height="52" viewBox="0 0 75 52" fill="none" xmlns="http://www.w3.org/2000/svg">
<path d="M35.368 36.328L33.4486 35.7659L35.368 36.328ZM31.752 43.752L33.3205 44.993L33.327 44.9846L31.752 43.752ZM26.28 48.104L27.0992 49.9286L27.1076 49.9247L26.28 48.104ZM12.712 48.104L11.8774 49.9215L11.8851 49.9251L11.8928 49.9285L12.712 48.104ZM7.304 43.752L5.72065 44.9739L5.72716 44.9823L7.304 43.752ZM3.72 36.328L1.79691 36.8775L1.80062 36.8901L3.72 36.328ZM3.72 15.24L1.80059 14.6779L1.798 14.6869L3.72 15.24ZM7.304 7.848L8.88086 9.0783L8.88733 9.06992L7.304 7.848ZM12.712 3.496L13.5312 5.32054L13.5389 5.31707L13.5466 5.31354L12.712 3.496ZM26.28 3.496L25.4454 5.31354L25.4565 5.31865L25.4677 5.32362L26.28 3.496ZM31.752 7.848L30.177 9.08063L30.1836 9.08896L31.752 7.848ZM35.368 15.24L33.4486 15.8021L33.4497 15.8058L35.368 15.24ZM26.856 17.64L24.8987 18.051L24.9007 18.0604L24.9027 18.0697L26.856 17.64ZM25.064 12.584L23.3516 13.6173L25.064 12.584ZM22.472 9.992L21.5618 11.7729L21.5697 11.7769L21.5776 11.7808L22.472 9.992ZM16.52 9.992L15.6098 8.21113L15.6016 8.2153L15.5935 8.21955L16.52 9.992ZM13.992 12.584L12.2796 11.5507L12.273 11.5616L12.2666 11.5726L13.992 12.584ZM12.232 17.64L14.1893 18.051L12.232 17.64ZM12.232 33.928L10.2747 34.339L12.232 33.928ZM13.992 38.984L12.2666 39.9954L12.273 40.0064L12.2796 40.0173L13.992 38.984ZM16.52 41.576L15.5935 43.3484L15.6016 43.3527L15.6098 43.3569L16.52 41.576ZM22.472 41.576L21.5776 39.7871L21.5697 39.7911L21.5618 39.7951L22.472 41.576ZM26.856 33.928L24.9027 33.4983L24.9007 33.5076L24.8987 33.517L26.856 33.928ZM34.68 25.768C34.68 29.6852 34.2565 33.0073 33.4486 35.7659L37.2874 36.8901C38.2288 33.6754 38.68 29.9575 38.68 25.768H34.68ZM33.4486 35.7659C32.6281 38.5676 31.5232 40.7992 30.177 42.5194L33.327 44.9846C35.0528 42.7794 36.3586 40.0617 37.2874 36.8901L33.4486 35.7659ZM30.1836 42.511C28.8313 44.2201 27.2556 45.4636 25.4524 46.2833L27.1076 49.9247C29.5284 48.8244 31.6007 47.1665 33.3204 44.993L30.1836 42.511ZM25.4608 46.2795C23.6434 47.0955 21.6632 47.512 19.496 47.512V51.512C22.1928 51.512 24.7353 50.9899 27.0992 49.9285L25.4608 46.2795ZM19.496 47.512C17.3288 47.512 15.3486 47.0955 13.5312 46.2795L11.8928 49.9285C14.2567 50.9899 16.7992 51.512 19.496 51.512V47.512ZM13.5466 46.2865C11.767 45.4693 10.2128 44.2289 8.88084 42.5217L5.72716 44.9823C7.4245 47.1577 9.47563 48.8187 11.8774 49.9215L13.5466 46.2865ZM8.88733 42.5301C7.55812 40.8077 6.46126 38.5723 5.63938 35.7659L1.80062 36.8901C2.72808 40.057 4.02055 42.7709 5.72067 44.9739L8.88733 42.5301ZM5.64305 35.7786C4.85356 33.0154 4.44 29.6887 4.44 25.768H0.44C0.44 29.954 0.879769 33.6673 1.79695 36.8774L5.64305 35.7786ZM4.44 25.768C4.44 21.8468 4.85368 18.5325 5.642 15.7931L1.798 14.6869C0.879654 17.8782 0.44 21.5825 0.44 25.768H4.44ZM5.63938 15.8021C6.46106 12.9964 7.55654 10.7756 8.88084 9.07828L5.72716 6.61772C4.02213 8.80305 2.72827 11.5103 1.80062 14.6779L5.63938 15.8021ZM8.88733 9.06992C10.2177 7.3461 11.7652 6.11343 13.5312 5.32054L11.8928 1.67146C9.47748 2.7559 7.41968 4.42456 5.72067 6.62608L8.88733 9.06992ZM13.5466 5.31354C15.3606 4.48058 17.3353 4.056 19.496 4.056V0.0559959C16.7927 0.0559959 14.2447 0.591415 11.8774 1.67846L13.5466 5.31354ZM19.496 4.056C21.6567 4.056 23.6314 4.48058 25.4454 5.31354L27.1146 1.67846C24.7473 0.591415 22.1993 0.0559959 19.496 0.0559959V4.056ZM25.4677 5.32362C27.2575 6.11906 28.8265 7.355 30.177 9.08062L33.327 6.61538C31.6055 4.41567 29.5265 2.75027 27.0923 1.66838L25.4677 5.32362ZM30.1836 9.08896C31.5248 10.7841 32.6283 13.0011 33.4486 15.8021L37.2874 14.6779C36.3583 11.5056 35.0512 8.79454 33.3204 6.60704L30.1836 9.08896ZM33.4497 15.8058C34.2564 18.5406 34.68 21.8503 34.68 25.768H38.68C38.68 21.579 38.229 17.8701 37.2863 14.6742L33.4497 15.8058ZM29.56 25.768C29.56 22.4027 29.321 19.5363 28.8093 17.2103L24.9027 18.0697C25.3297 20.0104 25.56 22.5626 25.56 25.768H29.56ZM28.8133 17.229C28.3402 14.9761 27.6822 13.0517 26.7764 11.5507L23.3516 13.6173C23.9392 14.591 24.4758 16.0373 24.8987 18.051L28.8133 17.229ZM26.7764 11.5507C25.8948 10.0898 24.7781 8.909 23.3664 8.20314L21.5776 11.7808C22.1285 12.0563 22.7398 12.6035 23.3516 13.6173L26.7764 11.5507ZM23.3822 8.21113C22.1558 7.58427 20.8533 7.256 19.496 7.256V11.256C20.1867 11.256 20.8682 11.4184 21.5618 11.7729L23.3822 8.21113ZM19.496 7.256C18.1387 7.256 16.8362 7.58427 15.6098 8.21113L17.4302 11.7729C18.1238 11.4184 18.8053 11.256 19.496 11.256V7.256ZM15.5935 8.21955C14.2324 8.93102 13.1491 10.1098 12.2796 11.5507L15.7044 13.6173C16.3282 12.5836 16.9303 12.0343 17.4465 11.7644L15.5935 8.21955ZM12.2666 11.5726C11.3909 13.0665 10.7465 14.9823 10.2747 17.229L14.1893 18.051C14.6135 16.031 15.1425 14.5762 15.7174 13.5954L12.2666 11.5726ZM10.2747 17.229C9.7879 19.547 9.56 22.4066 9.56 25.768H13.56C13.56 22.5588 13.7801 19.9997 14.1893 18.051L10.2747 17.229ZM9.56 25.768C9.56 29.1497 9.78776 32.0203 10.2747 34.339L14.1893 33.517C13.7802 31.569 13.56 28.9996 13.56 25.768H9.56ZM10.2747 34.339C10.7465 36.5857 11.3909 38.5015 12.2666 39.9954L15.7174 37.9726C15.1425 36.9918 14.6135 35.537 14.1893 33.517L10.2747 34.339ZM12.2796 40.0173C13.1491 41.4582 14.2324 42.637 15.5935 43.3484L17.4465 39.8036C16.9303 39.5337 16.3282 38.9844 15.7044 37.9507L12.2796 40.0173ZM15.6098 43.3569C16.8362 43.9837 18.1387 44.312 19.496 44.312V40.312C18.8053 40.312 18.1238 40.1496 17.4302 39.7951L15.6098 43.3569ZM19.496 44.312C20.8533 44.312 22.1558 43.9837 23.3822 43.3569L21.5618 39.7951C20.8682 40.1496 20.1867 40.312 19.496 40.312V44.312ZM23.3664 43.3649C24.7781 42.659 25.8948 41.4782 26.7764 40.0173L23.3516 37.9507C22.7398 38.9645 22.1285 39.5117 21.5776 39.7871L23.3664 43.3649ZM26.7764 40.0173C27.6822 38.5163 28.3402 36.5919 28.8133 34.339L24.8987 33.517C24.4758 35.5307 23.9392 36.977 23.3516 37.9507L26.7764 40.0173ZM28.8093 34.3577C29.3212 32.031 29.56 29.1535 29.56 25.768H25.56C25.56 28.9958 25.3295 31.5583 24.9027 33.4983L28.8093 34.3577ZM41.293 15.656L39.3154 15.3575L39.025 17.2812L40.94 17.6246L41.293 15.656ZM43.213 9.704L44.9654 10.6678L43.213 9.704ZM46.733 5.448L47.9853 7.00743L46.733 5.448ZM51.533 2.92L52.1244 4.83057L52.1314 4.82838L52.1385 4.82615L51.533 2.92ZM63.341 3.016L62.6538 4.89425L62.6675 4.89926L62.6813 4.90407L63.341 3.016ZM67.821 5.576L66.4874 7.06648L67.821 5.576ZM70.605 9.384L68.7752 10.1913L68.7801 10.2025L68.7852 10.2136L70.605 9.384ZM71.117 17.96L69.1926 17.4154L69.1891 17.4277L69.1858 17.4401L71.117 17.96ZM69.741 20.872L68.1361 19.6786L68.1261 19.692L68.1164 19.7056L69.741 20.872ZM67.501 22.984L66.4195 21.3016L66.4102 21.3076L66.401 21.3137L67.501 22.984ZM64.461 24.424L63.8285 22.5266L58.0905 24.4393L63.8377 26.3244L64.461 24.424ZM71.149 41.352L72.9464 42.2293L72.9504 42.2209L71.149 41.352ZM67.629 45.864L66.3552 44.3221L67.629 45.864ZM62.477 48.616L63.0652 50.5276L63.0783 50.5235L62.477 48.616ZM45.805 46.44L44.5682 48.0117L44.5744 48.0166L44.5807 48.0214L45.805 46.44ZM42.445 42.6L40.7321 43.6325L40.7384 43.6429L42.445 42.6ZM39.981 37.16L39.2226 35.3094L37.4816 36.0229L38.0876 37.8042L39.981 37.16ZM43.885 35.56L44.6435 37.4106L44.6542 37.4062L43.885 35.56ZM46.733 35.208L46.3042 37.1615L46.3139 37.1636L46.733 35.208ZM48.653 36.616L46.8744 37.5307L46.8788 37.5391L46.8832 37.5475L48.653 36.616ZM49.997 38.856L48.3489 39.9891L48.3608 40.0063L48.373 40.0233L49.997 38.856ZM51.629 40.648L50.3274 42.1665L50.3433 42.1802L50.3595 42.1935L51.629 40.648ZM53.645 41.8L52.9486 43.6749L52.9572 43.678L52.9657 43.6811L53.645 41.8ZM59.501 41.608L60.3093 43.4374L59.501 41.608ZM61.805 40.04L63.243 41.43L63.2544 41.4183L63.2655 41.4063L61.805 40.04ZM63.181 37.832L61.3143 37.114L61.3092 37.1273L61.3043 37.1406L63.181 37.832ZM63.373 32.488L61.4195 32.9168L61.4218 32.927L63.373 32.488ZM62.029 30.28L60.686 31.762L60.7102 31.7839L60.735 31.805L62.029 30.28ZM58.957 28.872L58.4647 30.8105L58.4826 30.815L58.5006 30.8192L58.957 28.872ZM53.453 28.36H51.453V30.36H53.453V28.36ZM53.453 22.152V20.152H51.453V22.152H53.453ZM58.221 21.672L57.7202 19.7357L58.221 21.672ZM62.573 18.248L60.6807 17.6006L60.673 17.6231L60.6658 17.6457L62.573 18.248ZM61.389 10.952L59.9606 12.3519L59.9676 12.3591L59.9748 12.3662L61.389 10.952ZM54.541 9.736L55.1735 11.6334L55.1901 11.6278L55.2066 11.622L54.541 9.736ZM52.621 10.728L51.4305 9.12088L51.416 9.13169L51.4016 9.14275L52.621 10.728ZM50.285 14.12L52.1546 14.8304L52.1862 14.7472L52.2103 14.6615L50.285 14.12ZM48.717 16.264L49.6582 18.0287L49.6808 18.0167L49.703 18.004L48.717 16.264ZM45.933 16.488L45.58 18.4566L45.6005 18.4603L45.6211 18.4635L45.933 16.488ZM43.2706 15.9545C43.5827 13.8867 44.1584 12.1352 44.9654 10.6678L41.4606 8.74016C40.3903 10.6861 39.6859 12.9026 39.3154 15.3575L43.2706 15.9545ZM44.9654 10.6678C45.788 9.17232 46.797 7.96169 47.9853 7.00743L45.4807 3.88857C43.8531 5.19564 42.5154 6.82235 41.4606 8.74016L44.9654 10.6678ZM47.9853 7.00743C49.1894 6.04045 50.5633 5.31376 52.1244 4.83057L50.9416 1.00943C48.9187 1.63557 47.0926 2.59421 45.4807 3.88857L47.9853 7.00743ZM52.1385 4.82615C53.7377 4.31816 55.4836 4.056 57.389 4.056V0.0559959C55.113 0.0559959 52.955 0.369831 50.9275 1.01385L52.1385 4.82615ZM57.389 4.056C59.4169 4.056 61.1622 4.34853 62.6538 4.89425L64.0282 1.13775C62.0211 0.403461 59.7984 0.0559959 57.389 0.0559959V4.056ZM62.6813 4.90407C64.2402 5.44874 65.4948 6.17836 66.4874 7.06648L69.1546 4.08551C67.7152 2.79763 65.9831 1.82058 64.0007 1.12793L62.6813 4.90407ZM66.4874 7.06648C67.4976 7.97033 68.2535 9.00874 68.7752 10.1913L72.4348 8.57672C71.6765 6.85792 70.5764 5.35766 69.1546 4.08551L66.4874 7.06648ZM68.7852 10.2136C69.3226 11.3924 69.597 12.6654 69.597 14.056H73.597C73.597 12.1186 73.2101 10.2769 72.4248 8.55438L68.7852 10.2136ZM69.597 14.056C69.597 15.3881 69.4517 16.5 69.1926 17.4154L73.0414 18.5046C73.4223 17.1587 73.597 15.6679 73.597 14.056H69.597ZM69.1858 17.4401C68.9455 18.3326 68.5892 19.0693 68.1361 19.6786L71.3459 22.0654C72.1302 21.0107 72.6912 19.8061 73.0482 18.4799L69.1858 17.4401ZM68.1164 19.7056C67.6718 20.3248 67.1122 20.8563 66.4195 21.3016L68.5825 24.6664C69.6818 23.9597 70.6155 23.0832 71.3656 22.0384L68.1164 19.7056ZM66.401 21.3137C65.6926 21.7802 64.8411 22.1891 63.8285 22.5266L65.0935 26.3214C66.3849 25.8909 67.5601 25.3398 68.601 24.6543L66.401 21.3137ZM63.8377 26.3244C66.218 27.1051 67.8322 28.2296 68.8616 29.6008C69.8849 30.9638 70.461 32.7443 70.461 35.08H74.461C74.461 32.061 73.7038 29.3882 72.0604 27.1992C70.4232 25.0184 68.0373 23.4922 65.0843 22.5236L63.8377 26.3244ZM70.461 35.08C70.461 37.1998 70.0705 38.9845 69.3476 40.4831L72.9504 42.2209C73.9769 40.0928 74.461 37.6962 74.461 35.08H70.461ZM69.3517 40.4747C68.5964 42.022 67.5975 43.2958 66.3552 44.3221L68.9028 47.4059C70.6045 46.0002 71.9522 44.266 72.9463 42.2293L69.3517 40.4747ZM66.3552 44.3221C65.0968 45.3617 63.6121 46.1612 61.8757 46.7085L63.0783 50.5235C65.2673 49.8335 67.2172 48.7983 68.9028 47.4059L66.3552 44.3221ZM61.8888 46.7044C60.1474 47.2403 58.309 47.512 56.365 47.512V51.512C58.6876 51.512 60.9239 51.1864 63.0652 50.5276L61.8888 46.7044ZM56.365 47.512C54.2494 47.512 52.4528 47.2719 50.9492 46.8264L49.8128 50.6616C51.7652 51.2401 53.9579 51.512 56.365 51.512V47.512ZM50.9492 46.8264C49.4403 46.3793 48.1413 45.7194 47.0293 44.8586L44.5807 48.0214C46.114 49.2086 47.8657 50.0847 49.8128 50.6616L50.9492 46.8264ZM47.0418 44.8683C45.9428 44.0035 44.9771 42.908 44.1516 41.5571L40.7384 43.6429C41.7902 45.364 43.0645 46.8285 44.5682 48.0117L47.0418 44.8683ZM44.1579 41.5676C43.3062 40.1545 42.5412 38.4759 41.8744 36.5158L38.0876 37.8042C38.8288 39.9828 39.7065 41.9309 40.7321 43.6324L44.1579 41.5676ZM40.7394 39.0106L44.6434 37.4106L43.1266 33.7094L39.2226 35.3094L40.7394 39.0106ZM44.6542 37.4062C45.3907 37.0993 45.9173 37.0766 46.3042 37.1615L47.1618 33.2545C45.7993 32.9554 44.4273 33.1674 43.1158 33.7138L44.6542 37.4062ZM46.3139 37.1636C46.6846 37.243 46.792 37.3704 46.8744 37.5307L50.4316 35.7013C49.746 34.3683 48.5734 33.557 47.1521 33.2524L46.3139 37.1636ZM46.8832 37.5475C47.3426 38.4205 47.8307 39.2353 48.3489 39.9891L51.6451 37.7229C51.2246 37.1114 50.8167 36.4328 50.4228 35.6845L46.8832 37.5475ZM48.373 40.0233C48.9504 40.8266 49.601 41.5439 50.3274 42.1665L52.9306 39.1295C52.4623 38.7281 52.025 38.2507 51.621 37.6887L48.373 40.0233ZM50.3595 42.1935C51.1335 42.8292 52.0004 43.3226 52.9486 43.6749L54.3414 39.9251C53.7963 39.7227 53.3192 39.4481 52.8985 39.1025L50.3595 42.1935ZM52.9657 43.6811C53.9905 44.0512 55.1015 44.216 56.269 44.216V40.216C55.4739 40.216 54.8355 40.1035 54.3243 39.9189L52.9657 43.6811ZM56.269 44.216C57.7214 44.216 59.0852 43.9783 60.3093 43.4374L58.6927 39.7786C58.0821 40.0484 57.2913 40.216 56.269 40.216V44.216ZM60.3093 43.4374C61.4331 42.9408 62.4234 42.2779 63.243 41.43L60.367 38.65C59.9492 39.0821 59.4035 39.4645 58.6927 39.7786L60.3093 43.4374ZM63.2655 41.4063C64.0576 40.5596 64.6623 39.5966 65.0577 38.5234L61.3043 37.1406C61.1024 37.6888 60.7897 38.1977 60.3445 38.6737L63.2655 41.4063ZM65.0477 38.55C65.447 37.5117 65.661 36.4475 65.661 35.368H61.661C61.661 35.9099 61.555 36.4883 61.3143 37.114L65.0477 38.55ZM65.661 35.368C65.661 34.1846 65.5548 33.0737 65.3242 32.049L61.4218 32.927C61.5752 33.6089 61.661 34.4181 61.661 35.368H65.661ZM65.3265 32.0592C65.0375 30.7427 64.3497 29.6262 63.323 28.755L60.735 31.805C61.1163 32.1285 61.3245 32.484 61.4195 32.9168L65.3265 32.0592ZM63.372 28.798C62.3402 27.863 60.9508 27.2851 59.4134 26.9248L58.5006 30.8192C59.6939 31.0989 60.3524 31.4597 60.686 31.762L63.372 28.798ZM59.4493 26.9335C57.8725 26.5331 55.8487 26.36 53.453 26.36V30.36C55.708 30.36 57.3535 30.5283 58.4647 30.8105L59.4493 26.9335ZM55.453 28.36V22.152H51.453V28.36H55.453ZM53.453 24.152C55.4856 24.152 57.2597 23.9864 58.7218 23.6083L57.7202 19.7357C56.7076 19.9976 55.3031 20.152 53.453 20.152V24.152ZM58.7218 23.6083C60.1334 23.2432 61.3998 22.6938 62.3995 21.8759L59.8665 18.7801C59.4582 19.1142 58.7832 19.4608 57.7202 19.7357L58.7218 23.6083ZM62.3995 21.8759C63.3824 21.0717 64.0988 20.058 64.4802 18.8503L60.6658 17.6457C60.5352 18.0593 60.2916 18.4323 59.8665 18.7801L62.3995 21.8759ZM64.4653 18.8954C64.822 17.8528 64.989 16.746 64.989 15.592H60.989C60.989 16.358 60.8787 17.0218 60.6807 17.6006L64.4653 18.8954ZM64.989 15.592C64.989 13.2226 64.3596 11.0942 62.8032 9.53778L59.9748 12.3662C60.5518 12.9432 60.989 13.908 60.989 15.592H64.989ZM62.8174 9.55214C61.2924 7.99599 59.2193 7.352 56.909 7.352V11.352C58.4814 11.352 59.3949 11.7747 59.9606 12.3519L62.8174 9.55214ZM56.909 7.352C55.8536 7.352 54.8366 7.51076 53.8754 7.85001L55.2066 11.622C55.6961 11.4492 56.2577 11.352 56.909 11.352V7.352ZM53.9085 7.83863C53.0115 8.13764 52.182 8.56425 51.4305 9.12088L53.8115 12.3351C54.212 12.0384 54.6625 11.8037 55.1735 11.6334L53.9085 7.83863ZM51.4016 9.14275C50.686 9.69317 50.066 10.3412 49.5454 11.081L52.8166 13.383C53.1067 12.9708 53.4466 12.6162 53.8404 12.3132L51.4016 9.14275ZM49.5454 11.081C49.0088 11.8436 48.6126 12.6793 48.3597 13.5785L52.2103 14.6615C52.3414 14.1954 52.5426 13.7724 52.8166 13.383L49.5454 11.081ZM48.4154 13.4096C48.089 14.2686 47.7946 14.4879 47.731 14.524L49.703 18.004C50.9194 17.3148 51.6703 16.1048 52.1546 14.8304L48.4154 13.4096ZM47.7758 14.4993C47.706 14.5365 47.302 14.6794 46.2449 14.5125L45.6211 18.4635C46.996 18.6806 48.448 18.6741 49.6582 18.0287L47.7758 14.4993ZM46.286 14.5194L41.646 13.6874L40.94 17.6246L45.58 18.4566L46.286 14.5194Z" fill="#EAE151"/>
</svg>
