<svg width="76" height="52" viewBox="0 0 76 52" fill="none" xmlns="http://www.w3.org/2000/svg">
<path d="M35.368 36.328L33.4486 35.7659L35.368 36.328ZM31.752 43.752L33.3205 44.993L33.327 44.9846L31.752 43.752ZM26.28 48.104L27.0992 49.9286L27.1076 49.9247L26.28 48.104ZM12.712 48.104L11.8774 49.9215L11.8851 49.9251L11.8928 49.9285L12.712 48.104ZM7.304 43.752L5.72065 44.9739L5.72716 44.9823L7.304 43.752ZM3.72 36.328L1.79691 36.8775L1.80062 36.8901L3.72 36.328ZM3.72 15.24L1.80059 14.6779L1.798 14.6869L3.72 15.24ZM7.304 7.848L8.88086 9.0783L8.88733 9.06992L7.304 7.848ZM12.712 3.496L13.5312 5.32054L13.5389 5.31707L13.5466 5.31354L12.712 3.496ZM26.28 3.496L25.4454 5.31354L25.4565 5.31865L25.4677 5.32362L26.28 3.496ZM31.752 7.848L30.177 9.08063L30.1836 9.08896L31.752 7.848ZM35.368 15.24L33.4486 15.8021L33.4497 15.8058L35.368 15.24ZM26.856 17.64L24.8987 18.051L24.9007 18.0604L24.9027 18.0697L26.856 17.64ZM25.064 12.584L23.3516 13.6173L25.064 12.584ZM22.472 9.992L21.5618 11.7729L21.5697 11.7769L21.5776 11.7808L22.472 9.992ZM16.52 9.992L15.6098 8.21113L15.6016 8.2153L15.5935 8.21955L16.52 9.992ZM13.992 12.584L12.2796 11.5507L12.273 11.5616L12.2666 11.5726L13.992 12.584ZM12.232 17.64L14.1893 18.051L12.232 17.64ZM12.232 33.928L10.2747 34.339L12.232 33.928ZM13.992 38.984L12.2666 39.9954L12.273 40.0064L12.2796 40.0173L13.992 38.984ZM16.52 41.576L15.5935 43.3484L15.6016 43.3527L15.6098 43.3569L16.52 41.576ZM22.472 41.576L21.5776 39.7871L21.5697 39.7911L21.5618 39.7951L22.472 41.576ZM26.856 33.928L24.9027 33.4983L24.9007 33.5076L24.8987 33.517L26.856 33.928ZM34.68 25.768C34.68 29.6852 34.2565 33.0073 33.4486 35.7659L37.2874 36.8901C38.2288 33.6754 38.68 29.9575 38.68 25.768H34.68ZM33.4486 35.7659C32.6281 38.5676 31.5232 40.7992 30.177 42.5194L33.327 44.9846C35.0528 42.7794 36.3586 40.0617 37.2874 36.8901L33.4486 35.7659ZM30.1836 42.511C28.8313 44.2201 27.2556 45.4636 25.4524 46.2833L27.1076 49.9247C29.5284 48.8244 31.6007 47.1665 33.3204 44.993L30.1836 42.511ZM25.4608 46.2795C23.6434 47.0955 21.6632 47.512 19.496 47.512V51.512C22.1928 51.512 24.7353 50.9899 27.0992 49.9285L25.4608 46.2795ZM19.496 47.512C17.3288 47.512 15.3486 47.0955 13.5312 46.2795L11.8928 49.9285C14.2567 50.9899 16.7992 51.512 19.496 51.512V47.512ZM13.5466 46.2865C11.767 45.4693 10.2128 44.2289 8.88084 42.5217L5.72716 44.9823C7.4245 47.1577 9.47563 48.8187 11.8774 49.9215L13.5466 46.2865ZM8.88733 42.5301C7.55812 40.8077 6.46126 38.5723 5.63938 35.7659L1.80062 36.8901C2.72808 40.057 4.02055 42.7709 5.72067 44.9739L8.88733 42.5301ZM5.64305 35.7786C4.85356 33.0154 4.44 29.6887 4.44 25.768H0.44C0.44 29.954 0.879769 33.6673 1.79695 36.8774L5.64305 35.7786ZM4.44 25.768C4.44 21.8468 4.85368 18.5325 5.642 15.7931L1.798 14.6869C0.879654 17.8782 0.44 21.5825 0.44 25.768H4.44ZM5.63938 15.8021C6.46106 12.9964 7.55654 10.7756 8.88084 9.07828L5.72716 6.61772C4.02213 8.80305 2.72827 11.5103 1.80062 14.6779L5.63938 15.8021ZM8.88733 9.06992C10.2177 7.3461 11.7652 6.11343 13.5312 5.32054L11.8928 1.67146C9.47748 2.7559 7.41968 4.42456 5.72067 6.62608L8.88733 9.06992ZM13.5466 5.31354C15.3606 4.48058 17.3353 4.056 19.496 4.056V0.0559959C16.7927 0.0559959 14.2447 0.591415 11.8774 1.67846L13.5466 5.31354ZM19.496 4.056C21.6567 4.056 23.6314 4.48058 25.4454 5.31354L27.1146 1.67846C24.7473 0.591415 22.1993 0.0559959 19.496 0.0559959V4.056ZM25.4677 5.32362C27.2575 6.11906 28.8265 7.355 30.177 9.08062L33.327 6.61538C31.6055 4.41567 29.5265 2.75027 27.0923 1.66838L25.4677 5.32362ZM30.1836 9.08896C31.5248 10.7841 32.6283 13.0011 33.4486 15.8021L37.2874 14.6779C36.3583 11.5056 35.0512 8.79454 33.3204 6.60704L30.1836 9.08896ZM33.4497 15.8058C34.2564 18.5406 34.68 21.8503 34.68 25.768H38.68C38.68 21.579 38.229 17.8701 37.2863 14.6742L33.4497 15.8058ZM29.56 25.768C29.56 22.4027 29.321 19.5363 28.8093 17.2103L24.9027 18.0697C25.3297 20.0104 25.56 22.5626 25.56 25.768H29.56ZM28.8133 17.229C28.3402 14.9761 27.6822 13.0517 26.7764 11.5507L23.3516 13.6173C23.9392 14.591 24.4758 16.0373 24.8987 18.051L28.8133 17.229ZM26.7764 11.5507C25.8948 10.0898 24.7781 8.909 23.3664 8.20314L21.5776 11.7808C22.1285 12.0563 22.7398 12.6035 23.3516 13.6173L26.7764 11.5507ZM23.3822 8.21113C22.1558 7.58427 20.8533 7.256 19.496 7.256V11.256C20.1867 11.256 20.8682 11.4184 21.5618 11.7729L23.3822 8.21113ZM19.496 7.256C18.1387 7.256 16.8362 7.58427 15.6098 8.21113L17.4302 11.7729C18.1238 11.4184 18.8053 11.256 19.496 11.256V7.256ZM15.5935 8.21955C14.2324 8.93102 13.1491 10.1098 12.2796 11.5507L15.7044 13.6173C16.3282 12.5836 16.9303 12.0343 17.4465 11.7644L15.5935 8.21955ZM12.2666 11.5726C11.3909 13.0665 10.7465 14.9823 10.2747 17.229L14.1893 18.051C14.6135 16.031 15.1425 14.5762 15.7174 13.5954L12.2666 11.5726ZM10.2747 17.229C9.7879 19.547 9.56 22.4066 9.56 25.768H13.56C13.56 22.5588 13.7801 19.9997 14.1893 18.051L10.2747 17.229ZM9.56 25.768C9.56 29.1497 9.78776 32.0203 10.2747 34.339L14.1893 33.517C13.7802 31.569 13.56 28.9996 13.56 25.768H9.56ZM10.2747 34.339C10.7465 36.5857 11.3909 38.5015 12.2666 39.9954L15.7174 37.9726C15.1425 36.9918 14.6135 35.537 14.1893 33.517L10.2747 34.339ZM12.2796 40.0173C13.1491 41.4582 14.2324 42.637 15.5935 43.3484L17.4465 39.8036C16.9303 39.5337 16.3282 38.9844 15.7044 37.9507L12.2796 40.0173ZM15.6098 43.3569C16.8362 43.9837 18.1387 44.312 19.496 44.312V40.312C18.8053 40.312 18.1238 40.1496 17.4302 39.7951L15.6098 43.3569ZM19.496 44.312C20.8533 44.312 22.1558 43.9837 23.3822 43.3569L21.5618 39.7951C20.8682 40.1496 20.1867 40.312 19.496 40.312V44.312ZM23.3664 43.3649C24.7781 42.659 25.8948 41.4782 26.7764 40.0173L23.3516 37.9507C22.7398 38.9645 22.1285 39.5117 21.5776 39.7871L23.3664 43.3649ZM26.7764 40.0173C27.6822 38.5163 28.3402 36.5919 28.8133 34.339L24.8987 33.517C24.4758 35.5307 23.9392 36.977 23.3516 37.9507L26.7764 40.0173ZM28.8093 34.3577C29.3212 32.031 29.56 29.1535 29.56 25.768H25.56C25.56 28.9958 25.3295 31.5583 24.9027 33.4983L28.8093 34.3577ZM60.653 31.272V33.272H62.653V31.272H60.653ZM60.717 15.144L58.7229 14.9906L58.721 15.0147L58.7198 15.0389L60.717 15.144ZM60.973 12.552L62.959 12.7884L59.3484 11.3856L60.973 12.552ZM47.533 31.272L45.9084 30.1056L43.635 33.272H47.533V31.272ZM73.709 31.272H75.709V29.272H73.709V31.272ZM73.229 37.48L71.7699 36.1121L71.7669 36.1154L73.229 37.48ZM68.333 37.96V35.96H66.333V37.96H68.333ZM68.333 49V51H70.333V49H68.333ZM60.653 49H58.653V51H60.653V49ZM60.653 37.96H62.653V35.96H60.653V37.96ZM39.949 37.448L38.7369 39.0389L38.7546 39.0524L38.7727 39.0655L39.949 37.448ZM39.117 36.104L41.081 35.7263L41.0778 35.7095L41.0742 35.6927L39.117 36.104ZM38.189 31.688L36.5863 30.4917L36.046 31.2154L36.2318 32.0993L38.189 31.688ZM59.949 2.536V0.535999H58.9461L58.3463 1.33966L59.949 2.536ZM68.333 2.536H70.333V0.535999H68.333V2.536ZM68.333 31.272H66.333V33.272H68.333V31.272ZM62.653 31.272V17.448H58.653V31.272H62.653ZM62.653 17.448C62.653 16.7616 62.6732 16.0288 62.7142 15.2491L58.7198 15.0389C58.6755 15.8805 58.653 16.6838 58.653 17.448H62.653ZM62.7111 15.2974C62.7728 14.4953 62.8553 13.659 62.959 12.7884L58.987 12.3156C58.8773 13.237 58.7892 14.1287 58.7229 14.9906L62.7111 15.2974ZM59.3484 11.3856L45.9084 30.1056L49.1576 32.4384L62.5976 13.7184L59.3484 11.3856ZM47.533 33.272H60.653V29.272H47.533V33.272ZM71.709 31.272V36.264H75.709V31.272H71.709ZM71.709 36.264C71.709 36.2668 71.7095 36.2343 71.7287 36.1857C71.7479 36.1369 71.7702 36.1118 71.7699 36.1121L74.6881 38.8479C75.3568 38.1346 75.709 37.2397 75.709 36.264H71.709ZM71.7669 36.1154C71.7987 36.0813 71.8361 36.0494 71.8773 36.0221C71.9181 35.9951 71.955 35.9777 71.9828 35.9673C72.0368 35.9471 72.037 35.96 71.949 35.96V39.96C72.9006 39.96 73.9187 39.6722 74.6911 38.8446L71.7669 36.1154ZM71.949 35.96H68.333V39.96H71.949V35.96ZM66.333 37.96V49H70.333V37.96H66.333ZM68.333 47H60.653V51H68.333V47ZM62.653 49V37.96H58.653V49H62.653ZM60.653 35.96H41.485V39.96H60.653V35.96ZM41.485 35.96C41.3734 35.96 41.2697 35.9355 41.1253 35.8305L38.7727 39.0655C39.567 39.6432 40.4873 39.96 41.485 39.96V35.96ZM41.1611 35.8571C41.1179 35.8242 41.107 35.8056 41.1055 35.8033C41.104 35.8009 41.0917 35.7818 41.081 35.7263L37.153 36.4817C37.3523 37.5179 37.8964 38.3984 38.7369 39.0389L41.1611 35.8571ZM41.0742 35.6927L40.1463 31.2767L36.2318 32.0993L37.1598 36.5153L41.0742 35.6927ZM39.7917 32.8843L61.5517 3.73234L58.3463 1.33966L36.5863 30.4917L39.7917 32.8843ZM59.949 4.536H68.333V0.535999H59.949V4.536ZM66.333 2.536V31.272H70.333V2.536H66.333ZM68.333 33.272H73.709V29.272H68.333V33.272Z" fill="#EAE151"/>
</svg>
