<svg width="74" height="52" viewBox="0 0 74 52" fill="none" xmlns="http://www.w3.org/2000/svg">
<path d="M35.368 36.328L33.4486 35.7659L35.368 36.328ZM31.752 43.752L33.3205 44.993L33.327 44.9846L31.752 43.752ZM26.28 48.104L27.0992 49.9286L27.1076 49.9247L26.28 48.104ZM12.712 48.104L11.8774 49.9215L11.8851 49.9251L11.8928 49.9285L12.712 48.104ZM7.304 43.752L5.72065 44.9739L5.72716 44.9823L7.304 43.752ZM3.72 36.328L1.79691 36.8775L1.80062 36.8901L3.72 36.328ZM3.72 15.24L1.80059 14.6779L1.798 14.6869L3.72 15.24ZM7.304 7.848L8.88086 9.0783L8.88733 9.06992L7.304 7.848ZM12.712 3.496L13.5312 5.32054L13.5389 5.31707L13.5466 5.31354L12.712 3.496ZM26.28 3.496L25.4454 5.31354L25.4565 5.31865L25.4677 5.32362L26.28 3.496ZM31.752 7.848L30.177 9.08063L30.1836 9.08896L31.752 7.848ZM35.368 15.24L33.4486 15.8021L33.4497 15.8058L35.368 15.24ZM26.856 17.64L24.8987 18.051L24.9007 18.0604L24.9027 18.0697L26.856 17.64ZM25.064 12.584L23.3516 13.6173L25.064 12.584ZM22.472 9.992L21.5618 11.7729L21.5697 11.7769L21.5776 11.7808L22.472 9.992ZM16.52 9.992L15.6098 8.21113L15.6016 8.2153L15.5935 8.21955L16.52 9.992ZM13.992 12.584L12.2796 11.5507L12.273 11.5616L12.2666 11.5726L13.992 12.584ZM12.232 17.64L14.1893 18.051L12.232 17.64ZM12.232 33.928L10.2747 34.339L12.232 33.928ZM13.992 38.984L12.2666 39.9954L12.273 40.0064L12.2796 40.0173L13.992 38.984ZM16.52 41.576L15.5935 43.3484L15.6016 43.3527L15.6098 43.3569L16.52 41.576ZM22.472 41.576L21.5776 39.7871L21.5697 39.7911L21.5618 39.7951L22.472 41.576ZM26.856 33.928L24.9027 33.4983L24.9007 33.5076L24.8987 33.517L26.856 33.928ZM34.68 25.768C34.68 29.6852 34.2565 33.0073 33.4486 35.7659L37.2874 36.8901C38.2288 33.6754 38.68 29.9575 38.68 25.768H34.68ZM33.4486 35.7659C32.6281 38.5676 31.5232 40.7992 30.177 42.5194L33.327 44.9846C35.0528 42.7794 36.3586 40.0617 37.2874 36.8901L33.4486 35.7659ZM30.1836 42.511C28.8313 44.2201 27.2556 45.4636 25.4524 46.2833L27.1076 49.9247C29.5284 48.8244 31.6007 47.1665 33.3204 44.993L30.1836 42.511ZM25.4608 46.2795C23.6434 47.0955 21.6632 47.512 19.496 47.512V51.512C22.1928 51.512 24.7353 50.9899 27.0992 49.9285L25.4608 46.2795ZM19.496 47.512C17.3288 47.512 15.3486 47.0955 13.5312 46.2795L11.8928 49.9285C14.2567 50.9899 16.7992 51.512 19.496 51.512V47.512ZM13.5466 46.2865C11.767 45.4693 10.2128 44.2289 8.88084 42.5217L5.72716 44.9823C7.4245 47.1577 9.47563 48.8187 11.8774 49.9215L13.5466 46.2865ZM8.88733 42.5301C7.55812 40.8077 6.46126 38.5723 5.63938 35.7659L1.80062 36.8901C2.72808 40.057 4.02055 42.7709 5.72067 44.9739L8.88733 42.5301ZM5.64305 35.7786C4.85356 33.0154 4.44 29.6887 4.44 25.768H0.44C0.44 29.954 0.879769 33.6673 1.79695 36.8774L5.64305 35.7786ZM4.44 25.768C4.44 21.8468 4.85368 18.5325 5.642 15.7931L1.798 14.6869C0.879654 17.8782 0.44 21.5825 0.44 25.768H4.44ZM5.63938 15.8021C6.46106 12.9964 7.55654 10.7756 8.88084 9.07828L5.72716 6.61772C4.02213 8.80305 2.72827 11.5103 1.80062 14.6779L5.63938 15.8021ZM8.88733 9.06992C10.2177 7.3461 11.7652 6.11343 13.5312 5.32054L11.8928 1.67146C9.47748 2.7559 7.41968 4.42456 5.72067 6.62608L8.88733 9.06992ZM13.5466 5.31354C15.3606 4.48058 17.3353 4.056 19.496 4.056V0.0559959C16.7927 0.0559959 14.2447 0.591415 11.8774 1.67846L13.5466 5.31354ZM19.496 4.056C21.6567 4.056 23.6314 4.48058 25.4454 5.31354L27.1146 1.67846C24.7473 0.591415 22.1993 0.0559959 19.496 0.0559959V4.056ZM25.4677 5.32362C27.2575 6.11906 28.8265 7.355 30.177 9.08062L33.327 6.61538C31.6055 4.41567 29.5265 2.75027 27.0923 1.66838L25.4677 5.32362ZM30.1836 9.08896C31.5248 10.7841 32.6283 13.0011 33.4486 15.8021L37.2874 14.6779C36.3583 11.5056 35.0512 8.79454 33.3204 6.60704L30.1836 9.08896ZM33.4497 15.8058C34.2564 18.5406 34.68 21.8503 34.68 25.768H38.68C38.68 21.579 38.229 17.8701 37.2863 14.6742L33.4497 15.8058ZM29.56 25.768C29.56 22.4027 29.321 19.5363 28.8093 17.2103L24.9027 18.0697C25.3297 20.0104 25.56 22.5626 25.56 25.768H29.56ZM28.8133 17.229C28.3402 14.9761 27.6822 13.0517 26.7764 11.5507L23.3516 13.6173C23.9392 14.591 24.4758 16.0373 24.8987 18.051L28.8133 17.229ZM26.7764 11.5507C25.8948 10.0898 24.7781 8.909 23.3664 8.20314L21.5776 11.7808C22.1285 12.0563 22.7398 12.6035 23.3516 13.6173L26.7764 11.5507ZM23.3822 8.21113C22.1558 7.58427 20.8533 7.256 19.496 7.256V11.256C20.1867 11.256 20.8682 11.4184 21.5618 11.7729L23.3822 8.21113ZM19.496 7.256C18.1387 7.256 16.8362 7.58427 15.6098 8.21113L17.4302 11.7729C18.1238 11.4184 18.8053 11.256 19.496 11.256V7.256ZM15.5935 8.21955C14.2324 8.93102 13.1491 10.1098 12.2796 11.5507L15.7044 13.6173C16.3282 12.5836 16.9303 12.0343 17.4465 11.7644L15.5935 8.21955ZM12.2666 11.5726C11.3909 13.0665 10.7465 14.9823 10.2747 17.229L14.1893 18.051C14.6135 16.031 15.1425 14.5762 15.7174 13.5954L12.2666 11.5726ZM10.2747 17.229C9.7879 19.547 9.56 22.4066 9.56 25.768H13.56C13.56 22.5588 13.7801 19.9997 14.1893 18.051L10.2747 17.229ZM9.56 25.768C9.56 29.1497 9.78776 32.0203 10.2747 34.339L14.1893 33.517C13.7802 31.569 13.56 28.9996 13.56 25.768H9.56ZM10.2747 34.339C10.7465 36.5857 11.3909 38.5015 12.2666 39.9954L15.7174 37.9726C15.1425 36.9918 14.6135 35.537 14.1893 33.517L10.2747 34.339ZM12.2796 40.0173C13.1491 41.4582 14.2324 42.637 15.5935 43.3484L17.4465 39.8036C16.9303 39.5337 16.3282 38.9844 15.7044 37.9507L12.2796 40.0173ZM15.6098 43.3569C16.8362 43.9837 18.1387 44.312 19.496 44.312V40.312C18.8053 40.312 18.1238 40.1496 17.4302 39.7951L15.6098 43.3569ZM19.496 44.312C20.8533 44.312 22.1558 43.9837 23.3822 43.3569L21.5618 39.7951C20.8682 40.1496 20.1867 40.312 19.496 40.312V44.312ZM23.3664 43.3649C24.7781 42.659 25.8948 41.4782 26.7764 40.0173L23.3516 37.9507C22.7398 38.9645 22.1285 39.5117 21.5776 39.7871L23.3664 43.3649ZM26.7764 40.0173C27.6822 38.5163 28.3402 36.5919 28.8133 34.339L24.8987 33.517C24.4758 35.5307 23.9392 36.977 23.3516 37.9507L26.7764 40.0173ZM28.8093 34.3577C29.3212 32.031 29.56 29.1535 29.56 25.768H25.56C25.56 28.9958 25.3295 31.5583 24.9027 33.4983L28.8093 34.3577ZM51.661 19.208L49.6898 18.8699L49.1974 21.7403L52.0532 21.1692L51.661 19.208ZM54.413 18.792L54.2234 16.801L54.2188 16.8014L54.413 18.792ZM63.437 19.784L62.6905 21.6395L62.7033 21.6446L62.7162 21.6496L63.437 19.784ZM68.141 22.792L66.715 24.1943L66.7208 24.2003L66.7268 24.2062L68.141 22.792ZM71.021 27.304L69.1455 27.9986L71.021 27.304ZM70.669 39.656L72.5053 40.4485L72.5083 40.4415L70.669 39.656ZM67.021 44.904L68.3942 46.358L68.3948 46.3575L67.021 44.904ZM61.485 48.296L60.7807 46.4241L60.7746 46.4264L61.485 48.296ZM50.253 49.032L50.7162 47.0864L50.7016 47.0829L50.6869 47.0796L50.253 49.032ZM46.477 47.816L45.6368 49.6309L45.6568 49.6402L45.6771 49.6491L46.477 47.816ZM43.245 45.992L44.3706 44.3388L43.245 45.992ZM40.557 43.848L38.9437 42.6659L37.9011 44.0887L39.1826 45.3009L40.557 43.848ZM43.277 40.136L44.8903 41.3181L44.8926 41.3149L43.277 40.136ZM49.101 40.616L48.0644 42.3264L48.0836 42.338L48.1031 42.3492L49.101 40.616ZM58.605 41.576L59.4066 43.4083L59.4225 43.4014L59.4383 43.3941L58.605 41.576ZM61.133 39.688L59.6032 38.3997L59.6 38.4036L61.133 39.688ZM62.637 36.84L60.7254 36.2518L60.7218 36.2637L60.7183 36.2757L62.637 36.84ZM61.069 27.72L59.6774 29.1565L59.6888 29.1675L59.7004 29.1784L61.069 27.72ZM48.589 26.952L48.0485 28.8776L48.6762 29.0538L49.2872 28.8262L48.589 26.952ZM43.117 25.416L41.1456 25.0791L40.8422 26.8548L42.5765 27.3416L43.117 25.416ZM47.021 2.568V0.567997H45.3338L45.0496 2.23114L47.021 2.568ZM70.317 2.568H72.317V0.567997H70.317V2.568ZM70.029 7.976L68.1563 7.27375L68.1479 7.29626L68.14 7.31895L70.029 7.976ZM69.133 9.288L70.4666 10.7785L70.4709 10.7746L69.133 9.288ZM67.533 10.152L68.1077 12.0676L68.1274 12.0617L68.147 12.0554L67.533 10.152ZM53.165 10.44V8.44H51.4789L51.1938 10.1019L53.165 10.44ZM52.0532 21.1692C52.955 20.9888 53.806 20.8607 54.6072 20.7825L54.2188 16.8014C53.2707 16.8939 52.287 17.0432 51.2688 17.2468L52.0532 21.1692ZM54.6026 20.783C55.4407 20.7032 56.2412 20.664 57.005 20.664V16.664C56.1048 16.664 55.1773 16.7102 54.2234 16.801L54.6026 20.783ZM57.005 20.664C59.2349 20.664 61.117 21.0064 62.6905 21.6395L64.1835 17.9285C62.045 17.0682 59.6391 16.664 57.005 16.664V20.664ZM62.7162 21.6496C64.3604 22.2849 65.6786 23.1404 66.715 24.1943L69.567 21.3897C68.086 19.8836 66.2682 18.7338 64.1578 17.9184L62.7162 21.6496ZM66.7268 24.2062C67.7992 25.2786 68.6038 26.5359 69.1455 27.9986L72.8965 26.6094C72.1582 24.6161 71.0428 22.8653 69.5552 21.3778L66.7268 24.2062ZM69.1455 27.9986C69.697 29.4878 69.981 31.1068 69.981 32.872H73.981C73.981 30.6692 73.625 28.5762 72.8965 26.6094L69.1455 27.9986ZM69.981 32.872C69.981 35.1068 69.5871 37.0971 68.8297 38.8705L72.5083 40.4415C73.5002 38.1189 73.981 35.5866 73.981 32.872H69.981ZM68.8327 38.8635C68.0624 40.6484 67.0011 42.1708 65.6472 43.4505L68.3948 46.3575C70.1556 44.6932 71.5263 42.7169 72.5053 40.4485L68.8327 38.8635ZM65.6478 43.45C64.3215 44.7026 62.7093 45.6985 60.7807 46.4241L62.1893 50.1679C64.57 49.2722 66.6485 48.0068 68.3942 46.358L65.6478 43.45ZM60.7746 46.4264C58.8923 47.1417 56.8001 47.512 54.477 47.512V51.512C57.2312 51.512 59.8111 51.0716 62.1954 50.1656L60.7746 46.4264ZM54.477 47.512C53.1509 47.512 51.8989 47.368 50.7162 47.0864L49.7898 50.9776C51.2951 51.336 52.8591 51.512 54.477 51.512V47.512ZM50.6869 47.0796C49.4591 46.8068 48.3239 46.4398 47.2769 45.9829L45.6771 49.6491C46.9768 50.2162 48.3589 50.6599 49.8191 50.9844L50.6869 47.0796ZM47.3172 46.0011C46.26 45.5116 45.2786 44.957 44.3706 44.3388L42.1194 47.6452C43.2167 48.3923 44.39 49.0537 45.6368 49.6309L47.3172 46.0011ZM44.3706 44.3388C43.4461 43.7093 42.6349 43.0606 41.9314 42.3951L39.1826 45.3009C40.0577 46.1288 41.0386 46.9093 42.1194 47.6452L44.3706 44.3388ZM42.1703 45.0301L44.8903 41.3181L41.6637 38.9539L38.9437 42.6659L42.1703 45.0301ZM44.8926 41.3149C45.1208 41.0022 45.2856 40.952 45.517 40.952V36.952C43.9137 36.952 42.5852 37.6911 41.6614 38.9571L44.8926 41.3149ZM45.517 40.952C45.6762 40.952 45.8831 40.994 46.1648 41.1673L48.2612 37.7607C47.4335 37.2514 46.5098 36.952 45.517 36.952V40.952ZM46.1648 41.1673C46.7242 41.5115 47.3575 41.898 48.0644 42.3264L50.1376 38.9056C49.4365 38.4807 48.8112 38.0991 48.2612 37.7607L46.1648 41.1673ZM48.1031 42.3492C48.9272 42.8237 49.8577 43.2433 50.8815 43.6156L52.2485 39.8564C51.395 39.546 50.6828 39.2189 50.0989 38.8828L48.1031 42.3492ZM50.8815 43.6156C52.1004 44.0588 53.4873 44.248 54.989 44.248V40.248C53.8027 40.248 52.9069 40.0958 52.2485 39.8564L50.8815 43.6156ZM54.989 44.248C56.5871 44.248 58.0768 43.9901 59.4066 43.4083L57.8034 39.7437C57.0852 40.0579 56.1642 40.248 54.989 40.248V44.248ZM59.4383 43.3941C60.7066 42.8128 61.7966 42.0101 62.666 40.9724L59.6 38.4036C59.1467 38.9445 58.5514 39.4005 57.7717 39.7579L59.4383 43.3941ZM62.6628 40.9763C63.5361 39.9393 64.1632 38.7391 64.5557 37.4043L60.7183 36.2757C60.4708 37.1169 60.0952 37.8154 59.6032 38.3997L62.6628 40.9763ZM64.5486 37.4282C64.9533 36.1129 65.149 34.7293 65.149 33.288H61.149C61.149 34.3641 61.0034 35.3484 60.7254 36.2518L64.5486 37.4282ZM65.149 33.288C65.149 30.4819 64.3289 28.0365 62.4376 26.2616L59.7004 29.1784C60.5824 30.0062 61.149 31.2728 61.149 33.288H65.149ZM62.4606 26.2835C60.5994 24.4805 58.0278 23.736 55.085 23.736V27.736C57.3902 27.736 58.8079 28.3142 59.6774 29.1565L62.4606 26.2835ZM55.085 23.736C52.674 23.736 50.2727 24.1904 47.8908 25.0778L49.2872 28.8262C51.2573 28.0922 53.1866 27.736 55.085 27.736V23.736ZM49.1295 25.0264L43.6575 23.4904L42.5765 27.3416L48.0485 28.8776L49.1295 25.0264ZM45.0884 25.7529L48.9924 2.90485L45.0496 2.23114L41.1456 25.0791L45.0884 25.7529ZM47.021 4.568H70.317V0.567997H47.021V4.568ZM68.317 2.568V6.28H72.317V2.568H68.317ZM68.317 6.28C68.317 6.69007 68.2538 7.01379 68.1563 7.27375L71.9017 8.67825C72.1882 7.9142 72.317 7.10726 72.317 6.28H68.317ZM68.14 7.31895C68.0914 7.45857 67.9979 7.61884 67.7951 7.80141L70.4709 10.7746C71.1214 10.1892 71.6252 9.47476 71.918 8.63304L68.14 7.31895ZM67.7994 7.79752C67.6517 7.92965 67.3854 8.09814 66.919 8.24858L68.147 12.0554C69.0033 11.7792 69.8036 11.3717 70.4666 10.7785L67.7994 7.79752ZM66.9583 8.23635C66.5631 8.3549 65.9812 8.44 65.165 8.44V12.44C66.2262 12.44 67.2229 12.3331 68.1077 12.0676L66.9583 8.23635ZM65.165 8.44H53.165V12.44H65.165V8.44ZM51.1938 10.1019L49.6898 18.8699L53.6322 19.5461L55.1362 10.7781L51.1938 10.1019Z" fill="#EAE151"/>
</svg>
