<svg width="956" height="188" viewBox="0 0 956 188" fill="none" xmlns="http://www.w3.org/2000/svg">
<g opacity="0.15">
<path d="M38.75 33V83.125H104V112.625H38.75V185H1V3.62499H116.5V33H38.75ZM180.352 185H142.602V3.62499H180.352V185ZM346.66 33.875H293.66V185H256.035V33.875H203.035V3.62499H346.66V33.875ZM524.539 3.62499V185H505.164C502.247 185 499.789 184.542 497.789 183.625C495.789 182.625 493.831 180.958 491.914 178.625L401.539 63.625C401.789 66.5417 401.956 69.4167 402.039 72.25C402.206 75.0833 402.289 77.7083 402.289 80.125V185H369.164V3.62499H388.914C390.497 3.62499 391.831 3.70832 392.914 3.87498C394.081 3.95832 395.122 4.24999 396.039 4.75C396.956 5.16666 397.831 5.74999 398.664 6.49999C399.497 7.24999 400.414 8.25 401.414 9.49999L492.414 125C492.081 121.833 491.831 118.792 491.664 115.875C491.497 112.875 491.414 110.042 491.414 107.375V3.62499H524.539ZM600.273 33V79.625H660.773V108H600.273V155.625H678.023V185H562.523V3.62499H678.023V33H600.273ZM804.328 38.375C803.161 40.2917 801.953 41.7083 800.703 42.625C799.536 43.4583 797.995 43.875 796.078 43.875C794.245 43.875 792.245 43.25 790.078 42C787.995 40.6667 785.536 39.25 782.703 37.75C779.87 36.25 776.62 34.875 772.953 33.625C769.286 32.2917 764.995 31.625 760.078 31.625C751.411 31.625 744.911 33.5833 740.578 37.5C736.245 41.3333 734.078 46.375 734.078 52.625C734.078 56.625 735.245 59.9583 737.578 62.625C739.995 65.2083 743.12 67.4583 746.953 69.375C750.87 71.2917 755.286 73 760.203 74.5C765.12 76 770.161 77.6667 775.328 79.5C780.495 81.25 785.536 83.3333 790.453 85.75C795.37 88.1667 799.745 91.2083 803.578 94.875C807.495 98.5417 810.62 103.042 812.953 108.375C815.37 113.625 816.578 120.042 816.578 127.625C816.578 135.875 815.12 143.625 812.203 150.875C809.37 158.042 805.245 164.333 799.828 169.75C794.411 175.083 787.703 179.292 779.703 182.375C771.786 185.458 762.786 187 752.703 187C746.953 187 741.203 186.417 735.453 185.25C729.786 184.083 724.286 182.458 718.953 180.375C713.703 178.292 708.745 175.792 704.078 172.875C699.411 169.958 695.328 166.708 691.828 163.125L702.828 145.375C703.745 144.042 704.953 142.958 706.453 142.125C707.953 141.208 709.536 140.75 711.203 140.75C713.453 140.75 715.828 141.583 718.328 143.25C720.828 144.917 723.703 146.75 726.953 148.75C730.203 150.75 733.953 152.583 738.203 154.25C742.536 155.917 747.703 156.75 753.703 156.75C762.453 156.75 769.203 154.75 773.953 150.75C778.786 146.75 781.203 140.792 781.203 132.875C781.203 128.292 779.995 124.583 777.578 121.75C775.245 118.917 772.161 116.542 768.328 114.625C764.495 112.708 760.12 111.083 755.203 109.75C750.286 108.333 745.245 106.792 740.078 105.125C734.911 103.458 729.87 101.458 724.953 99.125C720.036 96.7917 715.661 93.7083 711.828 89.875C707.995 86.0417 704.87 81.2917 702.453 75.625C700.12 69.9583 698.953 62.9167 698.953 54.5C698.953 47.75 700.286 41.2083 702.953 34.875C705.62 28.5417 709.536 22.9167 714.703 18C719.87 13.0833 726.203 9.12499 733.703 6.12499C741.286 3.12498 749.953 1.62498 759.703 1.62498C770.62 1.62498 780.703 3.33332 789.953 6.74999C799.286 10.0833 807.161 14.75 813.578 20.75L804.328 38.375ZM942.023 38.375C940.857 40.2917 939.648 41.7083 938.398 42.625C937.232 43.4583 935.69 43.875 933.773 43.875C931.94 43.875 929.94 43.25 927.773 42C925.69 40.6667 923.232 39.25 920.398 37.75C917.565 36.25 914.315 34.875 910.648 33.625C906.982 32.2917 902.69 31.625 897.773 31.625C889.107 31.625 882.607 33.5833 878.273 37.5C873.94 41.3333 871.773 46.375 871.773 52.625C871.773 56.625 872.94 59.9583 875.273 62.625C877.69 65.2083 880.815 67.4583 884.648 69.375C888.565 71.2917 892.982 73 897.898 74.5C902.815 76 907.857 77.6667 913.023 79.5C918.19 81.25 923.232 83.3333 928.148 85.75C933.065 88.1667 937.44 91.2083 941.273 94.875C945.19 98.5417 948.315 103.042 950.648 108.375C953.065 113.625 954.273 120.042 954.273 127.625C954.273 135.875 952.815 143.625 949.898 150.875C947.065 158.042 942.94 164.333 937.523 169.75C932.107 175.083 925.398 179.292 917.398 182.375C909.482 185.458 900.482 187 890.398 187C884.648 187 878.898 186.417 873.148 185.25C867.482 184.083 861.982 182.458 856.648 180.375C851.398 178.292 846.44 175.792 841.773 172.875C837.107 169.958 833.023 166.708 829.523 163.125L840.523 145.375C841.44 144.042 842.648 142.958 844.148 142.125C845.648 141.208 847.232 140.75 848.898 140.75C851.148 140.75 853.523 141.583 856.023 143.25C858.523 144.917 861.398 146.75 864.648 148.75C867.898 150.75 871.648 152.583 875.898 154.25C880.232 155.917 885.398 156.75 891.398 156.75C900.148 156.75 906.898 154.75 911.648 150.75C916.482 146.75 918.898 140.792 918.898 132.875C918.898 128.292 917.69 124.583 915.273 121.75C912.94 118.917 909.857 116.542 906.023 114.625C902.19 112.708 897.815 111.083 892.898 109.75C887.982 108.333 882.94 106.792 877.773 105.125C872.607 103.458 867.565 101.458 862.648 99.125C857.732 96.7917 853.357 93.7083 849.523 89.875C845.69 86.0417 842.565 81.2917 840.148 75.625C837.815 69.9583 836.648 62.9167 836.648 54.5C836.648 47.75 837.982 41.2083 840.648 34.875C843.315 28.5417 847.232 22.9167 852.398 18C857.565 13.0833 863.898 9.12499 871.398 6.12499C878.982 3.12498 887.648 1.62498 897.398 1.62498C908.315 1.62498 918.398 3.33332 927.648 6.74999C936.982 10.0833 944.857 14.75 951.273 20.75L942.023 38.375Z" fill="white"/>
<path d="M38.75 33V32H37.75V33H38.75ZM38.75 83.125H37.75V84.125H38.75V83.125ZM104 83.125H105V82.125H104V83.125ZM104 112.625V113.625H105V112.625H104ZM38.75 112.625V111.625H37.75V112.625H38.75ZM38.75 185V186H39.75V185H38.75ZM1 185H1.90735e-06V186H1V185ZM1 3.62498V2.62498H1.90735e-06V3.62498H1ZM116.5 3.62498H117.5V2.62498H116.5V3.62498ZM116.5 33V34H117.5V33H116.5ZM37.75 33V83.125H39.75V33H37.75ZM38.75 84.125H104V82.125H38.75V84.125ZM103 83.125V112.625H105V83.125H103ZM104 111.625H38.75V113.625H104V111.625ZM37.75 112.625V185H39.75V112.625H37.75ZM38.75 184H1V186H38.75V184ZM2 185V3.62498H1.90735e-06V185H2ZM1 4.62498H116.5V2.62498H1V4.62498ZM115.5 3.62498V33H117.5V3.62498H115.5ZM116.5 32H38.75V34H116.5V32ZM180.352 185V186H181.352V185H180.352ZM142.602 185H141.602V186H142.602V185ZM142.602 3.62498V2.62498H141.602V3.62498H142.602ZM180.352 3.62498H181.352V2.62498H180.352V3.62498ZM180.352 184H142.602V186H180.352V184ZM143.602 185V3.62498H141.602V185H143.602ZM142.602 4.62498H180.352V2.62498H142.602V4.62498ZM179.352 3.62498V185H181.352V3.62498H179.352ZM346.66 33.875V34.875H347.66V33.875H346.66ZM293.66 33.875V32.875H292.66V33.875H293.66ZM293.66 185V186H294.66V185H293.66ZM256.035 185H255.035V186H256.035V185ZM256.035 33.875H257.035V32.875H256.035V33.875ZM203.035 33.875H202.035V34.875H203.035V33.875ZM203.035 3.62498V2.62498H202.035V3.62498H203.035ZM346.66 3.62498H347.66V2.62498H346.66V3.62498ZM346.66 32.875H293.66V34.875H346.66V32.875ZM292.66 33.875V185H294.66V33.875H292.66ZM293.66 184H256.035V186H293.66V184ZM257.035 185V33.875H255.035V185H257.035ZM256.035 32.875H203.035V34.875H256.035V32.875ZM204.035 33.875V3.62498H202.035V33.875H204.035ZM203.035 4.62498H346.66V2.62498H203.035V4.62498ZM345.66 3.62498V33.875H347.66V3.62498H345.66ZM524.539 3.62498H525.539V2.62498H524.539V3.62498ZM524.539 185V186H525.539V185H524.539ZM497.789 183.625L497.342 184.519L497.357 184.527L497.372 184.534L497.789 183.625ZM491.914 178.625L491.128 179.243L491.134 179.251L491.141 179.26L491.914 178.625ZM401.539 63.625L402.325 63.0071L400.257 60.375L400.543 63.7104L401.539 63.625ZM402.039 72.25L401.039 72.2794L401.04 72.2941L401.041 72.3087L402.039 72.25ZM402.289 185V186H403.289V185H402.289ZM369.164 185H368.164V186H369.164V185ZM369.164 3.62498V2.62498H368.164V3.62498H369.164ZM392.914 3.87498L392.762 4.86336L392.802 4.86954L392.843 4.87244L392.914 3.87498ZM396.039 4.74999L395.56 5.62789L395.592 5.64531L395.625 5.66036L396.039 4.74999ZM398.664 6.49998L399.333 5.7567V5.75669L398.664 6.49998ZM401.414 9.49999L402.2 8.8811L402.195 8.8753L401.414 9.49999ZM492.414 125L491.629 125.619L493.771 128.338L493.409 124.895L492.414 125ZM491.664 115.875L490.666 115.93L490.666 115.932L491.664 115.875ZM491.414 3.62498V2.62498H490.414V3.62498H491.414ZM523.539 3.62498V185H525.539V3.62498H523.539ZM524.539 184H505.164V186H524.539V184ZM505.164 184C502.347 184 500.04 183.557 498.206 182.716L497.372 184.534C499.538 185.527 502.148 186 505.164 186V184ZM498.236 182.731C496.398 181.811 494.544 180.251 492.687 177.99L491.141 179.26C493.118 181.666 495.181 183.439 497.342 184.519L498.236 182.731ZM492.7 178.007L402.325 63.0071L400.753 64.2429L491.128 179.243L492.7 178.007ZM400.543 63.7104C400.791 66.609 400.957 69.4653 401.039 72.2794L403.039 72.2206C402.955 69.368 402.787 66.4743 402.535 63.5396L400.543 63.7104ZM401.041 72.3087C401.207 75.1258 401.289 77.7309 401.289 80.125H403.289C403.289 77.6857 403.205 75.0409 403.037 72.1913L401.041 72.3087ZM401.289 80.125V185H403.289V80.125H401.289ZM402.289 184H369.164V186H402.289V184ZM370.164 185V3.62498H368.164V185H370.164ZM369.164 4.62498H388.914V2.62498H369.164V4.62498ZM388.914 4.62498C390.467 4.62498 391.746 4.707 392.762 4.86336L393.066 2.88661C391.916 2.70964 390.528 2.62498 388.914 2.62498V4.62498ZM392.843 4.87244C393.884 4.94681 394.784 5.20429 395.56 5.62789L396.518 3.8721C395.461 3.29569 394.278 2.96984 392.985 2.87753L392.843 4.87244ZM395.625 5.66036C396.439 6.03021 397.229 6.55402 397.995 7.24329L399.333 5.75669C398.432 4.94596 397.473 4.30311 396.453 3.83963L395.625 5.66036ZM397.995 7.24328C398.775 7.94511 399.654 8.90082 400.633 10.1247L402.195 8.8753C401.174 7.59917 400.22 6.55489 399.333 5.7567L397.995 7.24328ZM400.629 10.1189L491.629 125.619L493.2 124.381L402.2 8.88112L400.629 10.1189ZM493.409 124.895C493.077 121.743 492.828 118.717 492.662 115.818L490.666 115.932C490.833 118.866 491.085 121.924 491.42 125.105L493.409 124.895ZM492.663 115.82C492.497 112.836 492.414 110.021 492.414 107.375H490.414C490.414 110.062 490.498 112.914 490.666 115.93L492.663 115.82ZM492.414 107.375V3.62498H490.414V107.375H492.414ZM491.414 4.62498H524.539V2.62498H491.414V4.62498ZM600.273 33V32H599.273V33H600.273ZM600.273 79.625H599.273V80.625H600.273V79.625ZM660.773 79.625H661.773V78.625H660.773V79.625ZM660.773 108V109H661.773V108H660.773ZM600.273 108V107H599.273V108H600.273ZM600.273 155.625H599.273V156.625H600.273V155.625ZM678.023 155.625H679.023V154.625H678.023V155.625ZM678.023 185V186H679.023V185H678.023ZM562.523 185H561.523V186H562.523V185ZM562.523 3.62498V2.62498H561.523V3.62498H562.523ZM678.023 3.62498H679.023V2.62498H678.023V3.62498ZM678.023 33V34H679.023V33H678.023ZM599.273 33V79.625H601.273V33H599.273ZM600.273 80.625H660.773V78.625H600.273V80.625ZM659.773 79.625V108H661.773V79.625H659.773ZM660.773 107H600.273V109H660.773V107ZM599.273 108V155.625H601.273V108H599.273ZM600.273 156.625H678.023V154.625H600.273V156.625ZM677.023 155.625V185H679.023V155.625H677.023ZM678.023 184H562.523V186H678.023V184ZM563.523 185V3.62498H561.523V185H563.523ZM562.523 4.62498H678.023V2.62498H562.523V4.62498ZM677.023 3.62498V33H679.023V3.62498H677.023ZM678.023 32H600.273V34H678.023V32ZM804.328 38.375L805.182 38.8949L805.199 38.8678L805.214 38.8397L804.328 38.375ZM800.703 42.625L801.284 43.4388L801.294 43.4314L800.703 42.625ZM790.078 42L789.539 42.8423L789.558 42.8547L789.578 42.8662L790.078 42ZM782.703 37.75L783.171 36.8662L782.703 37.75ZM772.953 33.625L772.611 34.5648L772.621 34.5682L772.63 34.5715L772.953 33.625ZM740.578 37.5L741.241 38.249L741.249 38.2419L740.578 37.5ZM737.578 62.625L736.826 63.2835L736.836 63.296L736.848 63.3082L737.578 62.625ZM746.953 69.375L746.506 70.2695L746.514 70.2732L746.953 69.375ZM775.328 79.5L774.994 80.4424L775 80.4448L775.007 80.4471L775.328 79.5ZM803.578 94.875L802.887 95.5977L802.895 95.605L803.578 94.875ZM812.953 108.375L812.037 108.776L812.041 108.785L812.045 108.793L812.953 108.375ZM812.203 150.875L811.275 150.502L811.273 150.507L812.203 150.875ZM799.828 169.75L800.53 170.463L800.535 170.457L799.828 169.75ZM779.703 182.375L779.344 181.442L779.34 181.443L779.703 182.375ZM735.453 185.25L735.251 186.229L735.254 186.23L735.453 185.25ZM718.953 180.375L718.584 181.305L718.589 181.306L718.953 180.375ZM704.078 172.875L704.608 172.027L704.078 172.875ZM691.828 163.125L690.978 162.598L690.566 163.264L691.113 163.824L691.828 163.125ZM702.828 145.375L702.004 144.808L701.991 144.828L701.978 144.848L702.828 145.375ZM706.453 142.125L706.939 142.999L706.957 142.989L706.975 142.978L706.453 142.125ZM718.328 143.25L718.883 142.418L718.328 143.25ZM726.953 148.75L727.477 147.898L726.953 148.75ZM738.203 154.25L737.838 155.181L737.844 155.183L738.203 154.25ZM773.953 150.75L773.316 149.98L773.309 149.985L773.953 150.75ZM777.578 121.75L776.806 122.386L776.812 122.392L776.817 122.399L777.578 121.75ZM755.203 109.75L754.926 110.711L754.934 110.713L754.941 110.715L755.203 109.75ZM740.078 105.125L740.385 104.173L740.078 105.125ZM724.953 99.125L724.524 100.028L724.953 99.125ZM702.453 75.625L701.528 76.0058L701.533 76.0173L702.453 75.625ZM702.953 34.875L702.031 34.4869L702.953 34.875ZM733.703 6.12498L733.335 5.1951L733.332 5.19651L733.703 6.12498ZM789.953 6.74998L789.607 7.6881L789.617 7.69173L789.953 6.74998ZM813.578 20.75L814.464 21.2147L814.818 20.54L814.261 20.0196L813.578 20.75ZM803.474 37.855C802.347 39.7058 801.22 41.0057 800.112 41.8186L801.294 43.4314C802.686 42.4109 803.976 40.8775 805.182 38.8949L803.474 37.855ZM800.122 41.8113C799.174 42.4886 797.856 42.875 796.078 42.875V44.875C798.134 44.875 799.899 44.428 801.284 43.4387L800.122 41.8113ZM796.078 42.875C794.473 42.875 792.646 42.3268 790.578 41.1338L789.578 42.8662C791.844 44.1732 794.017 44.875 796.078 44.875V42.875ZM790.617 41.1577C788.505 39.806 786.022 38.3755 783.171 36.8662L782.235 38.6338C785.051 40.1245 787.484 41.5273 789.539 42.8423L790.617 41.1577ZM783.171 36.8662C780.283 35.337 776.983 33.9421 773.276 32.6785L772.63 34.5715C776.257 35.8078 779.457 37.1629 782.235 38.6338L783.171 36.8662ZM773.295 32.6852C769.494 31.3032 765.082 30.625 760.078 30.625V32.625C764.907 32.625 769.079 33.2801 772.611 34.5648L773.295 32.6852ZM760.078 30.625C751.281 30.625 744.496 32.6106 739.908 36.7581L741.249 38.2419C745.327 34.556 751.542 32.625 760.078 32.625V30.625ZM739.916 36.751C735.349 40.7907 733.078 46.1144 733.078 52.625H735.078C735.078 46.6356 737.141 41.876 741.241 38.249L739.916 36.751ZM733.078 52.625C733.078 56.8339 734.312 60.4109 736.826 63.2835L738.331 61.9665C736.178 59.5058 735.078 56.4161 735.078 52.625H733.078ZM736.848 63.3082C739.361 65.9943 742.588 68.3106 746.506 70.2694L747.4 68.4806C743.651 66.6061 740.629 64.4223 738.308 61.9418L736.848 63.3082ZM746.514 70.2732C750.485 72.2169 754.953 73.9436 759.911 75.4565L760.495 73.5435C755.62 72.0563 751.254 70.3665 747.393 68.4768L746.514 70.2732ZM759.911 75.4565C764.813 76.9518 769.84 78.6138 774.994 80.4424L775.663 78.5576C770.483 76.7196 765.427 75.0482 760.495 73.5435L759.911 75.4565ZM775.007 80.4471C780.133 82.1832 785.134 84.2499 790.012 86.6474L790.894 84.8526C785.939 82.4168 780.857 80.3168 775.649 78.5529L775.007 80.4471ZM790.012 86.6474C794.84 89.0205 799.13 92.004 802.887 95.5976L804.269 94.1524C800.36 90.4127 795.9 87.3129 790.894 84.8526L790.012 86.6474ZM802.895 95.605C806.704 99.1712 809.753 103.556 812.037 108.776L813.869 107.974C811.486 102.527 808.286 97.9121 804.262 94.145L802.895 95.605ZM812.045 108.793C814.385 113.878 815.578 120.143 815.578 127.625H817.578C817.578 119.94 816.354 113.372 813.862 107.957L812.045 108.793ZM815.578 127.625C815.578 135.754 814.142 143.377 811.275 150.502L813.131 151.248C816.098 143.873 817.578 135.996 817.578 127.625H815.578ZM811.273 150.507C808.49 157.548 804.44 163.724 799.121 169.043L800.535 170.457C806.049 164.943 810.25 158.536 813.133 151.243L811.273 150.507ZM799.127 169.037C793.819 174.263 787.232 178.402 779.344 181.442L780.063 183.308C788.174 180.182 795.004 175.904 800.53 170.463L799.127 169.037ZM779.34 181.443C771.559 184.474 762.685 186 752.703 186V188C762.888 188 772.014 186.443 780.066 183.307L779.34 181.443ZM752.703 186C747.021 186 741.338 185.424 735.652 184.27L735.254 186.23C741.068 187.41 746.885 188 752.703 188V186ZM735.655 184.271C730.043 183.115 724.597 181.506 719.317 179.444L718.589 181.306C723.976 183.411 729.53 185.052 735.251 186.229L735.655 184.271ZM719.322 179.446C714.127 177.384 709.222 174.911 704.608 172.027L703.548 173.723C708.267 176.672 713.28 179.199 718.584 181.304L719.322 179.446ZM704.608 172.027C700.002 169.148 695.983 165.947 692.544 162.426L691.113 163.824C694.674 167.469 698.82 170.768 703.548 173.723L704.608 172.027ZM692.678 163.652L703.678 145.902L701.978 144.848L690.978 162.598L692.678 163.652ZM703.652 145.942C704.476 144.743 705.565 143.762 706.939 142.999L705.967 141.251C704.341 142.155 703.014 143.34 702.004 144.808L703.652 145.942ZM706.975 142.978C708.327 142.152 709.731 141.75 711.203 141.75V139.75C709.342 139.75 707.58 140.265 705.932 141.272L706.975 142.978ZM711.203 141.75C713.2 141.75 715.384 142.489 717.773 144.082L718.883 142.418C716.273 140.678 713.707 139.75 711.203 139.75V141.75ZM717.773 144.082C720.286 145.757 723.171 147.597 726.429 149.602L727.477 147.898C724.235 145.903 721.37 144.076 718.883 142.418L717.773 144.082ZM726.429 149.602C729.738 151.638 733.543 153.497 737.838 155.181L738.568 153.319C734.363 151.67 730.668 149.862 727.477 147.898L726.429 149.602ZM737.844 155.183C742.32 156.905 747.615 157.75 753.703 157.75V155.75C747.792 155.75 742.753 154.928 738.562 153.317L737.844 155.183ZM753.703 157.75C762.594 157.75 769.606 155.718 774.597 151.515L773.309 149.985C768.801 153.782 762.313 155.75 753.703 155.75V157.75ZM774.591 151.52C779.712 147.282 782.203 141.005 782.203 132.875H780.203C780.203 140.578 777.861 146.218 773.316 149.98L774.591 151.52ZM782.203 132.875C782.203 128.111 780.943 124.154 778.339 121.101L776.817 122.399C779.046 125.012 780.203 128.473 780.203 132.875H782.203ZM778.35 121.114C775.914 118.156 772.713 115.699 768.775 113.731L767.881 115.519C771.61 117.384 774.576 119.677 776.806 122.386L778.35 121.114ZM768.775 113.731C764.873 111.779 760.434 110.132 755.465 108.785L754.941 110.715C759.806 112.034 764.117 113.637 767.881 115.519L768.775 113.731ZM755.48 108.789C750.574 107.376 745.542 105.837 740.385 104.173L739.771 106.077C744.947 107.746 749.999 109.291 754.926 110.711L755.48 108.789ZM740.385 104.173C735.26 102.52 730.259 100.536 725.382 98.2216L724.524 100.028C729.48 102.38 734.563 104.397 739.771 106.077L740.385 104.173ZM725.382 98.2216C720.568 95.9371 716.287 92.92 712.535 89.1679L711.121 90.5821C715.036 94.4966 719.505 97.6462 724.524 100.028L725.382 98.2216ZM712.535 89.1679C708.804 85.4364 705.746 80.7977 703.373 75.2327L701.533 76.0173C703.993 81.7856 707.186 86.6469 711.121 90.5821L712.535 89.1679ZM703.378 75.2442C701.109 69.7344 699.953 62.8317 699.953 54.5H697.953C697.953 63.0017 699.131 70.1823 701.528 76.0057L703.378 75.2442ZM699.953 54.5C699.953 47.8857 701.259 41.4758 703.875 35.263L702.031 34.4869C699.314 40.9408 697.953 47.6143 697.953 54.5H699.953ZM703.875 35.263C706.486 29.0615 710.322 23.5498 715.393 18.7244L714.014 17.2756C708.751 22.2835 704.754 28.0219 702.031 34.4869L703.875 35.263ZM715.393 18.7244C720.456 13.9062 726.677 10.0125 734.075 7.05346L733.332 5.19651C725.729 8.23749 719.284 12.2605 714.014 17.2756L715.393 18.7244ZM734.071 7.05486C741.517 4.10929 750.055 2.62498 759.703 2.62498V0.624985C749.851 0.624985 741.056 2.14068 733.335 5.19511L734.071 7.05486ZM759.703 2.62498C770.514 2.62498 780.479 4.3165 789.607 7.68804L790.3 5.81193C780.927 2.35014 770.725 0.624985 759.703 0.624985V2.62498ZM789.617 7.69173C798.838 10.985 806.59 15.5851 812.895 21.4804L814.261 20.0196C807.733 13.9149 799.735 9.18169 790.289 5.80824L789.617 7.69173ZM812.693 20.2853L803.443 37.9103L805.214 38.8397L814.464 21.2147L812.693 20.2853ZM942.023 38.375L942.878 38.8949L942.894 38.8678L942.909 38.8397L942.023 38.375ZM938.398 42.625L938.98 43.4388L938.99 43.4314L938.398 42.625ZM927.773 42L927.234 42.8423L927.254 42.8547L927.274 42.8662L927.773 42ZM920.398 37.75L920.866 36.8662L920.398 37.75ZM910.648 33.625L910.307 34.5648L910.316 34.5682L910.326 34.5715L910.648 33.625ZM878.273 37.5L878.936 38.249L878.944 38.2419L878.273 37.5ZM875.273 62.625L874.521 63.2835L874.532 63.296L874.543 63.3082L875.273 62.625ZM884.648 69.375L884.201 70.2695L884.209 70.2732L884.648 69.375ZM913.023 79.5L912.689 80.4424L912.696 80.4448L912.703 80.4471L913.023 79.5ZM941.273 94.875L940.582 95.5977L940.59 95.605L941.273 94.875ZM950.648 108.375L949.732 108.776L949.736 108.785L949.74 108.793L950.648 108.375ZM949.898 150.875L948.971 150.502L948.969 150.507L949.898 150.875ZM937.523 169.75L938.225 170.463L938.231 170.457L937.523 169.75ZM917.398 182.375L917.039 181.442L917.036 181.443L917.398 182.375ZM873.148 185.25L872.947 186.229L872.95 186.23L873.148 185.25ZM856.648 180.375L856.28 181.305L856.285 181.306L856.648 180.375ZM841.773 172.875L842.303 172.027L841.773 172.875ZM829.523 163.125L828.673 162.598L828.261 163.264L828.808 163.824L829.523 163.125ZM840.523 145.375L839.699 144.808L839.686 144.828L839.673 144.848L840.523 145.375ZM844.148 142.125L844.634 142.999L844.652 142.989L844.67 142.978L844.148 142.125ZM856.023 143.25L856.578 142.418L856.023 143.25ZM864.648 148.75L865.173 147.898L864.648 148.75ZM875.898 154.25L875.533 155.181L875.539 155.183L875.898 154.25ZM911.648 150.75L911.011 149.98L911.004 149.985L911.648 150.75ZM915.273 121.75L914.502 122.386L914.507 122.392L914.513 122.399L915.273 121.75ZM892.898 109.75L892.622 110.711L892.629 110.713L892.637 110.715L892.898 109.75ZM877.773 105.125L878.08 104.173L877.773 105.125ZM862.648 99.125L862.22 100.028L862.648 99.125ZM840.148 75.625L839.224 76.0058L839.229 76.0173L840.148 75.625ZM840.648 34.875L839.727 34.4869L840.648 34.875ZM871.398 6.12498L871.031 5.1951L871.027 5.19651L871.398 6.12498ZM927.648 6.74998L927.302 7.6881L927.312 7.69173L927.648 6.74998ZM951.273 20.75L952.159 21.2147L952.513 20.54L951.956 20.0196L951.273 20.75ZM941.169 37.855C940.043 39.7058 938.916 41.0057 937.807 41.8186L938.99 43.4314C940.381 42.4109 941.671 40.8775 942.878 38.8949L941.169 37.855ZM937.817 41.8113C936.869 42.4886 935.551 42.875 933.773 42.875V44.875C935.829 44.875 937.595 44.428 938.98 43.4387L937.817 41.8113ZM933.773 42.875C932.168 42.875 930.341 42.3268 928.273 41.1338L927.274 42.8662C929.539 44.1732 931.712 44.875 933.773 44.875V42.875ZM928.312 41.1577C926.2 39.806 923.717 38.3755 920.866 36.8662L919.931 38.6338C922.746 40.1245 925.18 41.5273 927.234 42.8423L928.312 41.1577ZM920.866 36.8662C917.978 35.337 914.678 33.9421 910.971 32.6785L910.326 34.5715C913.952 35.8078 917.152 37.1629 919.931 38.6338L920.866 36.8662ZM910.99 32.6852C907.19 31.3032 902.778 30.625 897.773 30.625V32.625C902.603 32.625 906.774 33.2801 910.307 34.5648L910.99 32.6852ZM897.773 30.625C888.976 30.625 882.192 32.6106 877.603 36.7581L878.944 38.2419C883.022 34.556 889.237 32.625 897.773 32.625V30.625ZM877.611 36.751C873.044 40.7907 870.773 46.1144 870.773 52.625H872.773C872.773 46.6356 874.836 41.876 878.936 38.249L877.611 36.751ZM870.773 52.625C870.773 56.8339 872.007 60.4109 874.521 63.2835L876.026 61.9665C873.873 59.5058 872.773 56.4161 872.773 52.625H870.773ZM874.543 63.3082C877.056 65.9943 880.284 68.3106 884.201 70.2694L885.096 68.4806C881.347 66.6061 878.324 64.4223 876.004 61.9418L874.543 63.3082ZM884.209 70.2732C888.181 72.2169 892.648 73.9436 897.607 75.4565L898.19 73.5435C893.316 72.0563 888.95 70.3665 885.088 68.4768L884.209 70.2732ZM897.607 75.4565C902.508 76.9518 907.536 78.6138 912.689 80.4424L913.358 78.5576C908.178 76.7196 903.122 75.0482 898.19 73.5435L897.607 75.4565ZM912.703 80.4471C917.828 82.1832 922.829 84.2499 927.707 86.6474L928.59 84.8526C923.634 82.4168 918.552 80.3168 913.344 78.5529L912.703 80.4471ZM927.707 86.6474C932.535 89.0205 936.825 92.004 940.582 95.5976L941.965 94.1524C938.055 90.4127 933.595 87.3129 928.59 84.8526L927.707 86.6474ZM940.59 95.605C944.399 99.1712 947.449 103.556 949.732 108.776L951.565 107.974C949.182 102.527 945.981 97.9121 941.957 94.145L940.59 95.605ZM949.74 108.793C952.081 113.878 953.273 120.143 953.273 127.625H955.273C955.273 119.94 954.05 113.372 951.557 107.957L949.74 108.793ZM953.273 127.625C953.273 135.754 951.837 143.377 948.971 150.502L950.826 151.248C953.793 143.873 955.273 135.996 955.273 127.625H953.273ZM948.969 150.507C946.185 157.548 942.136 163.724 936.816 169.043L938.231 170.457C943.745 164.943 947.945 158.536 950.828 151.243L948.969 150.507ZM936.822 169.037C931.515 174.263 924.927 178.402 917.039 181.442L917.758 183.308C925.87 180.182 932.699 175.904 938.225 170.463L936.822 169.037ZM917.036 181.443C909.254 184.474 900.38 186 890.398 186V188C900.583 188 909.71 186.443 917.761 183.307L917.036 181.443ZM890.398 186C884.717 186 879.033 185.424 873.347 184.27L872.95 186.23C878.764 187.41 884.58 188 890.398 188V186ZM873.35 184.271C867.738 183.115 862.292 181.506 857.012 179.444L856.285 181.306C861.671 183.411 867.225 185.052 872.947 186.229L873.35 184.271ZM857.017 179.446C851.822 177.384 846.918 174.911 842.303 172.027L841.243 173.723C845.963 176.672 850.975 179.199 856.28 181.304L857.017 179.446ZM842.303 172.027C837.698 169.148 833.678 165.947 830.239 162.426L828.808 163.824C832.369 167.469 836.516 170.768 841.243 173.723L842.303 172.027ZM830.373 163.652L841.373 145.902L839.673 144.848L828.673 162.598L830.373 163.652ZM841.347 145.942C842.171 144.743 843.261 143.762 844.634 142.999L843.663 141.251C842.036 142.155 840.709 143.34 839.699 144.808L841.347 145.942ZM844.67 142.978C846.022 142.152 847.426 141.75 848.898 141.75V139.75C847.038 139.75 845.275 140.265 843.627 141.272L844.67 142.978ZM848.898 141.75C850.895 141.75 853.079 142.489 855.469 144.082L856.578 142.418C853.968 140.678 851.402 139.75 848.898 139.75V141.75ZM855.469 144.082C857.981 145.757 860.867 147.597 864.124 149.602L865.173 147.898C861.93 145.903 859.066 144.076 856.578 142.418L855.469 144.082ZM864.124 149.602C867.434 151.638 871.238 153.497 875.533 155.181L876.264 153.319C872.058 151.67 868.363 149.862 865.173 147.898L864.124 149.602ZM875.539 155.183C880.015 156.905 885.31 157.75 891.398 157.75V155.75C885.487 155.75 880.448 154.928 876.257 153.317L875.539 155.183ZM891.398 157.75C900.289 157.75 907.301 155.718 912.293 151.515L911.004 149.985C906.496 153.782 900.008 155.75 891.398 155.75V157.75ZM912.286 151.52C917.407 147.282 919.898 141.005 919.898 132.875H917.898C917.898 140.578 915.557 146.218 911.011 149.98L912.286 151.52ZM919.898 132.875C919.898 128.111 918.639 124.154 916.034 121.101L914.513 122.399C916.742 125.012 917.898 128.473 917.898 132.875H919.898ZM916.045 121.114C913.609 118.156 910.408 115.699 906.471 113.731L905.576 115.519C909.305 117.384 912.271 119.677 914.502 122.386L916.045 121.114ZM906.471 113.731C902.568 111.779 898.129 110.132 893.16 108.785L892.637 110.715C897.501 112.034 901.812 113.637 905.576 115.519L906.471 113.731ZM893.175 108.789C888.269 107.376 883.238 105.837 878.08 104.173L877.466 106.077C882.643 107.746 887.694 109.291 892.622 110.711L893.175 108.789ZM878.08 104.173C872.955 102.52 867.954 100.536 863.077 98.2216L862.22 100.028C867.176 102.38 872.258 104.397 877.466 106.077L878.08 104.173ZM863.077 98.2216C858.263 95.9371 853.983 92.92 850.231 89.1679L848.816 90.5821C852.731 94.4966 857.2 97.6462 862.22 100.028L863.077 98.2216ZM850.231 89.1679C846.499 85.4364 843.442 80.7977 841.068 75.2327L839.229 76.0173C841.689 81.7856 844.881 86.6469 848.816 90.5821L850.231 89.1679ZM841.073 75.2442C838.804 69.7344 837.648 62.8317 837.648 54.5H835.648C835.648 63.0017 836.826 70.1823 839.224 76.0057L841.073 75.2442ZM837.648 54.5C837.648 47.8857 838.954 41.4758 841.57 35.263L839.727 34.4869C837.009 40.9408 835.648 47.6143 835.648 54.5H837.648ZM841.57 35.263C844.181 29.0615 848.017 23.5498 853.088 18.7244L851.709 17.2756C846.447 22.2835 842.449 28.0219 839.727 34.4869L841.57 35.263ZM853.088 18.7244C858.151 13.9062 864.372 10.0125 871.77 7.05346L871.027 5.19651C863.425 8.23749 856.979 12.2605 851.709 17.2756L853.088 18.7244ZM871.766 7.05486C879.212 4.10929 887.75 2.62498 897.398 2.62498V0.624985C887.547 0.624985 878.751 2.14068 871.031 5.19511L871.766 7.05486ZM897.398 2.62498C908.209 2.62498 918.174 4.3165 927.302 7.68804L927.995 5.81193C918.623 2.35014 908.421 0.624985 897.398 0.624985V2.62498ZM927.312 7.69173C936.533 10.985 944.286 15.5851 950.59 21.4804L951.956 20.0196C945.428 13.9149 937.43 9.18169 927.985 5.80824L927.312 7.69173ZM950.388 20.2853L941.138 37.9103L942.909 38.8397L952.159 21.2147L950.388 20.2853Z" fill="white"/>
</g>
</svg>
