<svg width="804" height="159" viewBox="0 0 804 159" fill="none" xmlns="http://www.w3.org/2000/svg">
<g opacity="0.15">
<path d="M33.67 28.32V70.425H88.48V95.205H33.67V156H1.96V3.64499H98.98V28.32H33.67ZM152.615 156H120.905V3.64499H152.615V156ZM292.315 29.055H247.795V156H216.19V29.055H171.67V3.64499H292.315V29.055ZM441.733 3.64499V156H425.458C423.008 156 420.943 155.615 419.263 154.845C417.583 154.005 415.938 152.605 414.328 150.645L338.413 54.045C338.623 56.495 338.763 58.91 338.833 61.29C338.973 63.67 339.043 65.875 339.043 67.905V156H311.218V3.64499H327.808C329.138 3.64499 330.258 3.71499 331.168 3.85499C332.148 3.92499 333.023 4.16999 333.793 4.59C334.563 4.94 335.298 5.42999 335.998 6.05999C336.698 6.68999 337.468 7.53 338.308 8.58L414.748 105.6C414.468 102.94 414.258 100.385 414.118 97.935C413.978 95.415 413.908 93.035 413.908 90.795V3.64499H441.733ZM505.35 28.32V67.485H556.17V91.32H505.35V131.325H570.66V156H473.64V3.64499H570.66V28.32H505.35ZM676.756 32.835C675.776 34.445 674.761 35.635 673.711 36.405C672.731 37.105 671.436 37.455 669.826 37.455C668.286 37.455 666.606 36.93 664.786 35.88C663.036 34.76 660.971 33.57 658.591 32.31C656.211 31.05 653.481 29.895 650.401 28.845C647.321 27.725 643.716 27.165 639.586 27.165C632.306 27.165 626.846 28.81 623.206 32.1C619.566 35.32 617.746 39.555 617.746 44.805C617.746 48.165 618.726 50.965 620.686 53.205C622.716 55.375 625.341 57.265 628.561 58.875C631.851 60.485 635.561 61.92 639.691 63.18C643.821 64.44 648.056 65.84 652.396 67.38C656.736 68.85 660.971 70.6 665.101 72.63C669.231 74.66 672.906 77.215 676.126 80.295C679.416 83.375 682.041 87.155 684.001 91.635C686.031 96.045 687.046 101.435 687.046 107.805C687.046 114.735 685.821 121.245 683.371 127.335C680.991 133.355 677.526 138.64 672.976 143.19C668.426 147.67 662.791 151.205 656.071 153.795C649.421 156.385 641.861 157.68 633.391 157.68C628.561 157.68 623.731 157.19 618.901 156.21C614.141 155.23 609.521 153.865 605.041 152.115C600.631 150.365 596.466 148.265 592.546 145.815C588.626 143.365 585.196 140.635 582.256 137.625L591.496 122.715C592.266 121.595 593.281 120.685 594.541 119.985C595.801 119.215 597.131 118.83 598.531 118.83C600.421 118.83 602.416 119.53 604.516 120.93C606.616 122.33 609.031 123.87 611.761 125.55C614.491 127.23 617.641 128.77 621.211 130.17C624.851 131.57 629.191 132.27 634.231 132.27C641.581 132.27 647.251 130.59 651.241 127.23C655.301 123.87 657.331 118.865 657.331 112.215C657.331 108.365 656.316 105.25 654.286 102.87C652.326 100.49 649.736 98.495 646.516 96.885C643.296 95.275 639.621 93.91 635.491 92.79C631.361 91.6 627.126 90.305 622.786 88.905C618.446 87.505 614.211 85.825 610.081 83.865C605.951 81.905 602.276 79.315 599.056 76.095C595.836 72.875 593.211 68.885 591.181 64.125C589.221 59.365 588.241 53.45 588.241 46.38C588.241 40.71 589.361 35.215 591.601 29.895C593.841 24.575 597.131 19.85 601.471 15.72C605.811 11.59 611.131 8.26499 617.431 5.74499C623.801 3.22499 631.081 1.96499 639.271 1.96499C648.441 1.96499 656.911 3.39999 664.681 6.26999C672.521 9.06999 679.136 12.99 684.526 18.03L676.756 32.835ZM792.42 32.835C791.44 34.445 790.425 35.635 789.375 36.405C788.395 37.105 787.1 37.455 785.49 37.455C783.95 37.455 782.27 36.93 780.45 35.88C778.7 34.76 776.635 33.57 774.255 32.31C771.875 31.05 769.145 29.895 766.065 28.845C762.985 27.725 759.38 27.165 755.25 27.165C747.97 27.165 742.51 28.81 738.87 32.1C735.23 35.32 733.41 39.555 733.41 44.805C733.41 48.165 734.39 50.965 736.35 53.205C738.38 55.375 741.005 57.265 744.225 58.875C747.515 60.485 751.225 61.92 755.355 63.18C759.485 64.44 763.72 65.84 768.06 67.38C772.4 68.85 776.635 70.6 780.765 72.63C784.895 74.66 788.57 77.215 791.79 80.295C795.08 83.375 797.705 87.155 799.665 91.635C801.695 96.045 802.71 101.435 802.71 107.805C802.71 114.735 801.485 121.245 799.035 127.335C796.655 133.355 793.19 138.64 788.64 143.19C784.09 147.67 778.455 151.205 771.735 153.795C765.085 156.385 757.525 157.68 749.055 157.68C744.225 157.68 739.395 157.19 734.565 156.21C729.805 155.23 725.185 153.865 720.705 152.115C716.295 150.365 712.13 148.265 708.21 145.815C704.29 143.365 700.86 140.635 697.92 137.625L707.16 122.715C707.93 121.595 708.945 120.685 710.205 119.985C711.465 119.215 712.795 118.83 714.195 118.83C716.085 118.83 718.08 119.53 720.18 120.93C722.28 122.33 724.695 123.87 727.425 125.55C730.155 127.23 733.305 128.77 736.875 130.17C740.515 131.57 744.855 132.27 749.895 132.27C757.245 132.27 762.915 130.59 766.905 127.23C770.965 123.87 772.995 118.865 772.995 112.215C772.995 108.365 771.98 105.25 769.95 102.87C767.99 100.49 765.4 98.495 762.18 96.885C758.96 95.275 755.285 93.91 751.155 92.79C747.025 91.6 742.79 90.305 738.45 88.905C734.11 87.505 729.875 85.825 725.745 83.865C721.615 81.905 717.94 79.315 714.72 76.095C711.5 72.875 708.875 68.885 706.845 64.125C704.885 59.365 703.905 53.45 703.905 46.38C703.905 40.71 705.025 35.215 707.265 29.895C709.505 24.575 712.795 19.85 717.135 15.72C721.475 11.59 726.795 8.26499 733.095 5.74499C739.465 3.22499 746.745 1.96499 754.935 1.96499C764.105 1.96499 772.575 3.39999 780.345 6.26999C788.185 9.06999 794.8 12.99 800.19 18.03L792.42 32.835Z" fill="white"/>
<path d="M33.67 28.32V27.32H32.67V28.32H33.67ZM33.67 70.425H32.67V71.425H33.67V70.425ZM88.48 70.425H89.48V69.425H88.48V70.425ZM88.48 95.205V96.205H89.48V95.205H88.48ZM33.67 95.205V94.205H32.67V95.205H33.67ZM33.67 156V157H34.67V156H33.67ZM1.96 156H0.960001V157H1.96V156ZM1.96 3.64499V2.64499H0.960001V3.64499H1.96ZM98.98 3.64499H99.98V2.64499H98.98V3.64499ZM98.98 28.32V29.32H99.98V28.32H98.98ZM32.67 28.32V70.425H34.67V28.32H32.67ZM33.67 71.425H88.48V69.425H33.67V71.425ZM87.48 70.425V95.205H89.48V70.425H87.48ZM88.48 94.205H33.67V96.205H88.48V94.205ZM32.67 95.205V156H34.67V95.205H32.67ZM33.67 155H1.96V157H33.67V155ZM2.96 156V3.64499H0.960001V156H2.96ZM1.96 4.64499H98.98V2.64499H1.96V4.64499ZM97.98 3.64499V28.32H99.98V3.64499H97.98ZM98.98 27.32H33.67V29.32H98.98V27.32ZM152.615 156V157H153.615V156H152.615ZM120.905 156H119.905V157H120.905V156ZM120.905 3.64499V2.64499H119.905V3.64499H120.905ZM152.615 3.64499H153.615V2.64499H152.615V3.64499ZM152.615 155H120.905V157H152.615V155ZM121.905 156V3.64499H119.905V156H121.905ZM120.905 4.64499H152.615V2.64499H120.905V4.64499ZM151.615 3.64499V156H153.615V3.64499H151.615ZM292.315 29.055V30.055H293.315V29.055H292.315ZM247.795 29.055V28.055H246.795V29.055H247.795ZM247.795 156V157H248.795V156H247.795ZM216.19 156H215.19V157H216.19V156ZM216.19 29.055H217.19V28.055H216.19V29.055ZM171.67 29.055H170.67V30.055H171.67V29.055ZM171.67 3.64499V2.64499H170.67V3.64499H171.67ZM292.315 3.64499H293.315V2.64499H292.315V3.64499ZM292.315 28.055H247.795V30.055H292.315V28.055ZM246.795 29.055V156H248.795V29.055H246.795ZM247.795 155H216.19V157H247.795V155ZM217.19 156V29.055H215.19V156H217.19ZM216.19 28.055H171.67V30.055H216.19V28.055ZM172.67 29.055V3.64499H170.67V29.055H172.67ZM171.67 4.64499H292.315V2.64499H171.67V4.64499ZM291.315 3.64499V29.055H293.315V3.64499H291.315ZM441.733 3.64499H442.733V2.64499H441.733V3.64499ZM441.733 156V157H442.733V156H441.733ZM419.263 154.845L418.816 155.739L418.831 155.747L418.846 155.754L419.263 154.845ZM414.328 150.645L413.542 151.263L413.548 151.271L413.555 151.28L414.328 150.645ZM338.413 54.045L339.199 53.4271L337.131 50.795L337.416 54.1304L338.413 54.045ZM338.833 61.29L337.833 61.3194L337.834 61.3341L337.835 61.3487L338.833 61.29ZM339.043 156V157H340.043V156H339.043ZM311.218 156H310.218V157H311.218V156ZM311.218 3.64499V2.64499H310.218V3.64499H311.218ZM331.168 3.85499L331.016 4.84336L331.056 4.84955L331.097 4.85245L331.168 3.85499ZM333.793 4.59L333.314 5.46789L333.346 5.48531L333.379 5.50036L333.793 4.59ZM335.998 6.05999L336.667 5.3167L335.998 6.05999ZM338.308 8.57999L339.093 7.96111L339.089 7.9553L338.308 8.57999ZM414.748 105.6L413.962 106.219L416.105 108.938L415.742 105.495L414.748 105.6ZM414.118 97.935L413.119 97.9905L413.119 97.9921L414.118 97.935ZM413.908 3.64499V2.64499H412.908V3.64499H413.908ZM440.733 3.64499V156H442.733V3.64499H440.733ZM441.733 155H425.458V157H441.733V155ZM425.458 155C423.107 155 421.193 154.63 419.679 153.936L418.846 155.754C420.692 156.6 422.909 157 425.458 157V155ZM419.71 153.951C418.191 153.191 416.651 151.898 415.101 150.01L413.555 151.28C415.225 153.312 416.974 154.819 418.816 155.739L419.71 153.951ZM415.114 150.027L339.199 53.4271L337.627 54.6629L413.542 151.263L415.114 150.027ZM337.416 54.1304C337.625 56.5624 337.764 58.9587 337.833 61.3194L339.832 61.2606C339.762 58.8613 339.621 56.4276 339.409 53.9596L337.416 54.1304ZM337.835 61.3487C337.974 63.7124 338.043 65.8976 338.043 67.905H340.043C340.043 65.8524 339.972 63.6276 339.831 61.2313L337.835 61.3487ZM338.043 67.905V156H340.043V67.905H338.043ZM339.043 155H311.218V157H339.043V155ZM312.218 156V3.64499H310.218V156H312.218ZM311.218 4.64499H327.808V2.64499H311.218V4.64499ZM327.808 4.64499C329.107 4.64499 330.173 4.71367 331.016 4.84336L331.32 2.86662C330.343 2.7163 329.168 2.64499 327.808 2.64499V4.64499ZM331.097 4.85245C331.951 4.91348 332.684 5.12429 333.314 5.46789L334.272 3.7121C333.362 3.21569 332.345 2.9365 331.239 2.85753L331.097 4.85245ZM333.379 5.50036C334.046 5.80355 334.696 6.23402 335.329 6.80329L336.667 5.3167C335.899 4.62596 335.08 4.07645 334.207 3.67963L333.379 5.50036ZM335.329 6.80328C335.975 7.38511 336.708 8.18082 337.527 9.20469L339.089 7.9553C338.228 6.87917 337.42 5.99488 336.667 5.3167L335.329 6.80328ZM337.522 9.19887L413.962 106.219L415.533 104.981L339.093 7.96112L337.522 9.19887ZM415.742 105.495C415.464 102.85 415.255 100.311 415.116 97.8779L413.119 97.9921C413.26 100.459 413.472 103.03 413.753 105.705L415.742 105.495ZM415.116 97.8795C414.977 95.3757 414.908 93.0144 414.908 90.795H412.908C412.908 93.0556 412.978 95.4543 413.119 97.9905L415.116 97.8795ZM414.908 90.795V3.64499H412.908V90.795H414.908ZM413.908 4.64499H441.733V2.64499H413.908V4.64499ZM505.35 28.32V27.32H504.35V28.32H505.35ZM505.35 67.485H504.35V68.485H505.35V67.485ZM556.17 67.485H557.17V66.485H556.17V67.485ZM556.17 91.32V92.32H557.17V91.32H556.17ZM505.35 91.32V90.32H504.35V91.32H505.35ZM505.35 131.325H504.35V132.325H505.35V131.325ZM570.66 131.325H571.66V130.325H570.66V131.325ZM570.66 156V157H571.66V156H570.66ZM473.64 156H472.64V157H473.64V156ZM473.64 3.64499V2.64499H472.64V3.64499H473.64ZM570.66 3.64499H571.66V2.64499H570.66V3.64499ZM570.66 28.32V29.32H571.66V28.32H570.66ZM504.35 28.32V67.485H506.35V28.32H504.35ZM505.35 68.485H556.17V66.485H505.35V68.485ZM555.17 67.485V91.32H557.17V67.485H555.17ZM556.17 90.32H505.35V92.32H556.17V90.32ZM504.35 91.32V131.325H506.35V91.32H504.35ZM505.35 132.325H570.66V130.325H505.35V132.325ZM569.66 131.325V156H571.66V131.325H569.66ZM570.66 155H473.64V157H570.66V155ZM474.64 156V3.64499H472.64V156H474.64ZM473.64 4.64499H570.66V2.64499H473.64V4.64499ZM569.66 3.64499V28.32H571.66V3.64499H569.66ZM570.66 27.32H505.35V29.32H570.66V27.32ZM676.756 32.835L677.61 33.3549L677.626 33.3278L677.641 33.2997L676.756 32.835ZM673.711 36.405L674.292 37.2188L674.302 37.2114L673.711 36.405ZM664.786 35.88L664.247 36.7223L664.266 36.7347L664.286 36.7462L664.786 35.88ZM658.591 32.31L659.059 31.4262L658.591 32.31ZM650.401 28.845L650.059 29.7848L650.068 29.7882L650.078 29.7915L650.401 28.845ZM623.206 32.1L623.868 32.849L623.876 32.8419L623.206 32.1ZM620.686 53.205L619.933 53.8635L619.944 53.876L619.955 53.8882L620.686 53.205ZM628.561 58.875L628.113 59.7695L628.121 59.7732L628.561 58.875ZM652.396 67.38L652.061 68.3224L652.068 68.3248L652.075 68.3271L652.396 67.38ZM676.126 80.295L675.434 81.0177L675.442 81.025L676.126 80.295ZM684.001 91.635L683.084 92.0358L683.088 92.0445L683.092 92.0531L684.001 91.635ZM683.371 127.335L682.443 126.962L682.441 126.967L683.371 127.335ZM672.976 143.19L673.677 143.903L673.683 143.897L672.976 143.19ZM656.071 153.795L655.711 152.862L655.708 152.863L656.071 153.795ZM618.901 156.21L618.699 157.189L618.702 157.19L618.901 156.21ZM605.041 152.115L604.672 153.045L604.677 153.046L605.041 152.115ZM592.546 145.815L593.076 144.967L592.546 145.815ZM582.256 137.625L581.406 137.098L580.993 137.764L581.54 138.324L582.256 137.625ZM591.496 122.715L590.672 122.148L590.658 122.168L590.646 122.188L591.496 122.715ZM594.541 119.985L595.026 120.859L595.044 120.849L595.062 120.838L594.541 119.985ZM604.516 120.93L605.07 120.098L604.516 120.93ZM611.761 125.55L612.285 124.698L611.761 125.55ZM621.211 130.17L620.846 131.101L620.852 131.103L621.211 130.17ZM651.241 127.23L650.603 126.46L650.596 126.465L651.241 127.23ZM654.286 102.87L653.514 103.506L653.519 103.512L653.525 103.519L654.286 102.87ZM635.491 92.79L635.214 93.7509L635.221 93.7531L635.229 93.7551L635.491 92.79ZM622.786 88.905L623.093 87.9533V87.9533L622.786 88.905ZM610.081 83.865L609.652 84.7684L610.081 83.865ZM591.181 64.125L590.256 64.5058L590.261 64.5173L591.181 64.125ZM591.601 29.895L590.679 29.5069L591.601 29.895ZM617.431 5.74499L617.063 4.8151L617.059 4.81651L617.431 5.74499ZM664.681 6.26999L664.334 7.2081L664.344 7.21173L664.681 6.26999ZM684.526 18.03L685.411 18.4947L685.765 17.82L685.209 17.2996L684.526 18.03ZM675.901 32.315C674.962 33.8592 674.028 34.9324 673.119 35.5986L674.302 37.2114C675.494 36.3376 676.59 35.0308 677.61 33.3549L675.901 32.315ZM673.129 35.5913C672.368 36.1353 671.296 36.455 669.826 36.455V38.455C671.575 38.455 673.094 38.0747 674.292 37.2187L673.129 35.5913ZM669.826 36.455C668.514 36.455 667.006 36.0068 665.285 35.0138L664.286 36.7462C666.205 37.8532 668.058 38.455 669.826 38.455V36.455ZM665.325 35.0377C663.546 33.8993 661.456 32.6955 659.059 31.4262L658.123 33.1938C660.485 34.4445 662.525 35.6207 664.247 36.7223L665.325 35.0377ZM659.059 31.4262C656.623 30.137 653.843 28.9621 650.723 27.8985L650.078 29.7915C653.118 30.8278 655.798 31.963 658.123 33.1938L659.059 31.4262ZM650.742 27.9052C647.529 26.7365 643.803 26.165 639.586 26.165V28.165C643.628 28.165 647.113 28.7135 650.059 29.7848L650.742 27.9052ZM639.586 26.165C632.175 26.165 626.43 27.8373 622.535 31.3581L623.876 32.8419C627.261 29.7827 632.436 28.165 639.586 28.165V26.165ZM622.543 31.351C618.67 34.7773 616.746 39.2944 616.746 44.805H618.746C618.746 39.8156 620.461 35.8627 623.868 32.849L622.543 31.351ZM616.746 44.805C616.746 48.3739 617.793 51.4176 619.933 53.8635L621.438 52.5465C619.658 50.5124 618.746 47.9561 618.746 44.805H616.746ZM619.955 53.8882C622.082 56.161 624.809 58.1172 628.113 59.7694L629.008 57.9806C625.872 56.4127 623.35 54.589 621.416 52.5218L619.955 53.8882ZM628.121 59.7732C631.466 61.4102 635.227 62.8637 639.399 64.1365L639.982 62.2235C635.894 60.9763 632.235 59.5598 629 57.9768L628.121 59.7732ZM639.399 64.1365C643.514 65.3918 647.734 66.7871 652.061 68.3224L652.73 66.4376C648.377 64.8929 644.128 63.4882 639.982 62.2235L639.399 64.1365ZM652.075 68.3271C656.373 69.7831 660.568 71.5165 664.659 73.5274L665.542 71.7326C661.373 69.6835 657.098 67.9168 652.716 66.4329L652.075 68.3271ZM664.659 73.5274C668.701 75.5138 672.291 78.0107 675.434 81.0176L676.817 79.5724C673.521 76.4193 669.76 73.8062 665.542 71.7326L664.659 73.5274ZM675.442 81.025C678.625 84.0046 681.174 87.6695 683.084 92.0358L684.917 91.2342C682.907 86.6405 680.206 82.7454 676.809 79.565L675.442 81.025ZM683.092 92.0531C685.046 96.2978 686.046 101.536 686.046 107.805H688.046C688.046 101.334 687.015 95.7922 684.909 91.2169L683.092 92.0531ZM686.046 107.805C686.046 114.614 684.843 120.997 682.443 126.962L684.298 127.708C686.799 121.493 688.046 114.856 688.046 107.805H686.046ZM682.441 126.967C680.111 132.861 676.721 138.03 672.269 142.483L673.683 143.897C678.33 139.25 681.871 133.849 684.301 127.703L682.441 126.967ZM672.274 142.477C667.833 146.85 662.319 150.315 655.711 152.862L656.43 154.728C663.262 152.095 669.018 148.49 673.677 143.903L672.274 142.477ZM655.708 152.863C649.193 155.401 641.759 156.68 633.391 156.68V158.68C641.962 158.68 649.648 157.369 656.434 154.727L655.708 152.863ZM633.391 156.68C628.629 156.68 623.865 156.197 619.099 155.23L618.702 157.19C623.596 158.183 628.492 158.68 633.391 158.68V156.68ZM619.102 155.231C614.397 154.262 609.831 152.913 605.404 151.184L604.677 153.046C609.21 154.817 613.884 156.198 618.699 157.189L619.102 155.231ZM605.409 151.186C601.054 149.457 596.943 147.384 593.076 144.967L592.016 146.663C595.988 149.146 600.207 151.273 604.672 153.044L605.409 151.186ZM593.076 144.967C589.217 142.555 585.85 139.874 582.971 136.926L581.54 138.324C584.541 141.396 588.035 144.175 592.016 146.663L593.076 144.967ZM583.106 138.152L592.346 123.242L590.646 122.188L581.406 137.098L583.106 138.152ZM592.32 123.282C592.997 122.297 593.893 121.489 595.026 120.859L594.055 119.111C592.668 119.881 591.534 120.893 590.672 122.148L592.32 123.282ZM595.062 120.838C596.174 120.159 597.325 119.83 598.531 119.83V117.83C596.936 117.83 595.427 118.271 594.019 119.132L595.062 120.838ZM598.531 119.83C600.167 119.83 601.971 120.436 603.961 121.762L605.07 120.098C602.86 118.624 600.674 117.83 598.531 117.83V119.83ZM603.961 121.762C606.073 123.17 608.499 124.717 611.237 126.402L612.285 124.698C609.562 123.023 607.158 121.49 605.07 120.098L603.961 121.762ZM611.237 126.402C614.026 128.118 617.231 129.683 620.846 131.101L621.576 129.239C618.051 127.857 614.956 126.342 612.285 124.698L611.237 126.402ZM620.852 131.103C624.634 132.558 629.102 133.27 634.231 133.27V131.27C629.279 131.27 625.067 130.582 621.57 129.237L620.852 131.103ZM634.231 133.27C641.721 133.27 647.653 131.558 651.885 127.995L650.596 126.465C646.848 129.622 641.44 131.27 634.231 131.27V133.27ZM651.878 128C656.226 124.402 658.331 119.078 658.331 112.215H656.331C656.331 118.652 654.375 123.338 650.603 126.46L651.878 128ZM658.331 112.215C658.331 108.184 657.264 104.821 655.046 102.221L653.525 103.519C655.367 105.679 656.331 108.546 656.331 112.215H658.331ZM655.058 102.234C652.995 99.7297 650.287 97.6528 646.963 95.9906L646.068 97.7794C649.184 99.3372 651.656 101.25 653.514 103.506L655.058 102.234ZM646.963 95.9906C643.674 94.346 639.935 92.9591 635.752 91.8249L635.229 93.7551C639.306 94.8609 642.918 96.204 646.068 97.7794L646.963 95.9906ZM635.768 91.8291C631.648 90.6422 627.423 89.3503 623.093 87.9533L622.479 89.8567C626.828 91.2597 631.073 92.5578 635.214 93.7509L635.768 91.8291ZM623.093 87.9533C618.794 86.5667 614.6 84.9029 610.509 82.9616L609.652 84.7684C613.821 86.7471 618.097 88.4433 622.479 89.8567L623.093 87.9533ZM610.509 82.9616C606.482 81.0504 602.902 78.5267 599.763 75.3879L598.349 76.8021C601.65 80.1033 605.419 82.7596 609.652 84.7684L610.509 82.9616ZM599.763 75.3879C596.645 72.2698 594.087 68.3911 592.1 63.7327L590.261 64.5173C592.334 69.3789 595.027 73.4802 598.349 76.8021L599.763 75.3879ZM592.105 63.7442C590.21 59.1411 589.241 53.365 589.241 46.38H587.241C587.241 53.535 588.231 59.5889 590.256 64.5057L592.105 63.7442ZM589.241 46.38C589.241 40.8457 590.333 35.4825 592.522 30.283L590.679 29.5069C588.388 34.9475 587.241 40.5743 587.241 46.38H589.241ZM592.522 30.2831C594.707 25.0948 597.916 20.4832 602.16 16.4444L600.781 14.9956C596.345 19.2168 592.974 24.0552 590.679 29.5069L592.522 30.2831ZM602.16 16.4444C606.397 12.4129 611.604 9.15248 617.802 6.67347L617.059 4.81651C610.657 7.37749 605.225 10.7671 600.781 14.9956L602.16 16.4444ZM617.798 6.67487C624.031 4.2093 631.182 2.96498 639.271 2.96498V0.964985C630.979 0.964985 623.57 2.24068 617.063 4.81511L617.798 6.67487ZM639.271 2.96498C648.335 2.96498 656.686 4.38317 664.334 7.20804L665.027 5.33193C657.135 2.41681 648.546 0.964985 639.271 0.964985V2.96498ZM664.344 7.21173C672.072 9.97163 678.565 13.8251 683.843 18.7604L685.209 17.2996C679.707 12.1549 672.969 8.16836 665.017 5.32825L664.344 7.21173ZM683.64 17.5653L675.87 32.3703L677.641 33.2997L685.411 18.4947L683.64 17.5653ZM792.42 32.835L793.274 33.3549L793.29 33.3278L793.305 33.2997L792.42 32.835ZM789.375 36.405L789.956 37.2188L789.966 37.2114L789.375 36.405ZM780.45 35.88L779.911 36.7223L779.93 36.7347L779.95 36.7462L780.45 35.88ZM774.255 32.31L774.723 31.4262L774.255 32.31ZM766.065 28.845L765.723 29.7848L765.732 29.7882L765.742 29.7915L766.065 28.845ZM738.87 32.1L739.532 32.849L739.54 32.8419L738.87 32.1ZM736.35 53.205L735.597 53.8635L735.608 53.876L735.619 53.8882L736.35 53.205ZM744.225 58.875L743.777 59.7695L743.785 59.7732L744.225 58.875ZM768.06 67.38L767.725 68.3224L767.732 68.3248L767.739 68.3271L768.06 67.38ZM791.79 80.295L791.098 81.0177L791.106 81.025L791.79 80.295ZM799.665 91.635L798.749 92.0358L798.752 92.0445L798.756 92.0531L799.665 91.635ZM799.035 127.335L798.107 126.962L798.105 126.967L799.035 127.335ZM788.64 143.19L789.341 143.903L789.347 143.897L788.64 143.19ZM771.735 153.795L771.375 152.862L771.372 152.863L771.735 153.795ZM734.565 156.21L734.363 157.189L734.366 157.19L734.565 156.21ZM720.705 152.115L720.336 153.045L720.341 153.046L720.705 152.115ZM708.21 145.815L708.74 144.967L708.21 145.815ZM697.92 137.625L697.07 137.098L696.657 137.764L697.204 138.324L697.92 137.625ZM707.16 122.715L706.336 122.148L706.322 122.168L706.31 122.188L707.16 122.715ZM710.205 119.985L710.69 120.859L710.708 120.849L710.726 120.838L710.205 119.985ZM720.18 120.93L720.734 120.098L720.18 120.93ZM727.425 125.55L727.949 124.698L727.425 125.55ZM736.875 130.17L736.51 131.101L736.516 131.103L736.875 130.17ZM766.905 127.23L766.267 126.46L766.261 126.465L766.905 127.23ZM769.95 102.87L769.178 103.506L769.183 103.512L769.189 103.519L769.95 102.87ZM751.155 92.79L750.878 93.7509L750.885 93.7531L750.893 93.7551L751.155 92.79ZM738.45 88.905L738.757 87.9533V87.9533L738.45 88.905ZM725.745 83.865L725.316 84.7684L725.745 83.865ZM706.845 64.125L705.92 64.5058L705.925 64.5173L706.845 64.125ZM707.265 29.895L706.343 29.5069L707.265 29.895ZM733.095 5.74499L732.727 4.8151L732.723 4.81651L733.095 5.74499ZM780.345 6.26999L779.998 7.2081L780.008 7.21173L780.345 6.26999ZM800.19 18.03L801.075 18.4947L801.429 17.82L800.873 17.2996L800.19 18.03ZM791.565 32.315C790.626 33.8592 789.692 34.9324 788.783 35.5986L789.966 37.2114C791.158 36.3376 792.254 35.0308 793.274 33.3549L791.565 32.315ZM788.793 35.5913C788.032 36.1353 786.961 36.455 785.49 36.455V38.455C787.239 38.455 788.758 38.0747 789.956 37.2187L788.793 35.5913ZM785.49 36.455C784.178 36.455 782.671 36.0068 780.949 35.0138L779.95 36.7462C781.869 37.8532 783.722 38.455 785.49 38.455V36.455ZM780.989 35.0377C779.21 33.8993 777.12 32.6955 774.723 31.4262L773.787 33.1938C776.149 34.4445 778.189 35.6207 779.911 36.7223L780.989 35.0377ZM774.723 31.4262C772.287 30.137 769.507 28.9621 766.387 27.8985L765.742 29.7915C768.782 30.8278 771.462 31.963 773.787 33.1938L774.723 31.4262ZM766.406 27.9052C763.193 26.7365 759.467 26.165 755.25 26.165V28.165C759.292 28.165 762.777 28.7135 765.723 29.7848L766.406 27.9052ZM755.25 26.165C747.839 26.165 742.094 27.8373 738.199 31.3581L739.54 32.8419C742.925 29.7827 748.1 28.165 755.25 28.165V26.165ZM738.207 31.351C734.334 34.7773 732.41 39.2944 732.41 44.805H734.41C734.41 39.8156 736.125 35.8627 739.532 32.849L738.207 31.351ZM732.41 44.805C732.41 48.3739 733.457 51.4176 735.597 53.8635L737.102 52.5465C735.322 50.5124 734.41 47.9561 734.41 44.805H732.41ZM735.619 53.8882C737.746 56.161 740.473 58.1172 743.777 59.7694L744.672 57.9806C741.536 56.4127 739.014 54.589 737.08 52.5218L735.619 53.8882ZM743.785 59.7732C747.13 61.4102 750.891 62.8637 755.063 64.1365L755.646 62.2235C751.559 60.9763 747.899 59.5598 744.664 57.9768L743.785 59.7732ZM755.063 64.1365C759.178 65.3918 763.398 66.7871 767.725 68.3224L768.394 66.4376C764.041 64.8929 759.792 63.4882 755.646 62.2235L755.063 64.1365ZM767.739 68.3271C772.038 69.7831 776.232 71.5165 780.324 73.5274L781.206 71.7326C777.037 69.6835 772.762 67.9168 768.38 66.4329L767.739 68.3271ZM780.324 73.5274C784.365 75.5138 787.955 78.0107 791.098 81.0176L792.481 79.5724C789.185 76.4193 785.425 73.8062 781.206 71.7326L780.324 73.5274ZM791.106 81.025C794.289 84.0046 796.838 87.6695 798.749 92.0358L800.581 91.2342C798.571 86.6405 795.87 82.7454 792.473 79.565L791.106 81.025ZM798.756 92.0531C800.71 96.2978 801.71 101.536 801.71 107.805H803.71C803.71 101.334 802.679 95.7922 800.573 91.2169L798.756 92.0531ZM801.71 107.805C801.71 114.614 800.507 120.997 798.107 126.962L799.962 127.708C802.463 121.493 803.71 114.856 803.71 107.805H801.71ZM798.105 126.967C795.775 132.861 792.385 138.03 787.933 142.483L789.347 143.897C793.994 139.25 797.535 133.849 799.965 127.703L798.105 126.967ZM787.938 142.477C783.497 146.85 777.984 150.315 771.375 152.862L772.094 154.728C778.926 152.095 784.682 148.49 789.341 143.903L787.938 142.477ZM771.372 152.863C764.857 155.401 757.423 156.68 749.055 156.68V158.68C757.626 158.68 765.312 157.369 772.098 154.727L771.372 152.863ZM749.055 156.68C744.293 156.68 739.529 156.197 734.764 155.23L734.366 157.19C739.26 158.183 744.157 158.68 749.055 158.68V156.68ZM734.766 155.231C730.061 154.262 725.495 152.913 721.069 151.184L720.341 153.046C724.874 154.817 729.548 156.198 734.363 157.189L734.766 155.231ZM721.074 151.186C716.718 149.457 712.607 147.384 708.74 144.967L707.68 146.663C711.652 149.146 715.871 151.273 720.336 153.044L721.074 151.186ZM708.74 144.967C704.881 142.555 701.514 139.874 698.635 136.926L697.204 138.324C700.205 141.396 703.699 144.175 707.68 146.663L708.74 144.967ZM698.77 138.152L708.01 123.242L706.31 122.188L697.07 137.098L698.77 138.152ZM707.984 123.282C708.661 122.297 709.557 121.489 710.69 120.859L709.719 119.111C708.332 119.881 707.198 120.893 706.336 122.148L707.984 123.282ZM710.726 120.838C711.838 120.159 712.989 119.83 714.195 119.83V117.83C712.6 117.83 711.091 118.271 709.683 119.132L710.726 120.838ZM714.195 119.83C715.831 119.83 717.635 120.436 719.625 121.762L720.734 120.098C718.524 118.624 716.338 117.83 714.195 117.83V119.83ZM719.625 121.762C721.737 123.17 724.163 124.717 726.901 126.402L727.949 124.698C725.227 123.023 722.822 121.49 720.734 120.098L719.625 121.762ZM726.901 126.402C729.69 128.118 732.895 129.683 736.51 131.101L737.24 129.239C733.715 127.857 730.62 126.342 727.949 124.698L726.901 126.402ZM736.516 131.103C740.298 132.558 744.766 133.27 749.895 133.27V131.27C744.943 131.27 740.731 130.582 737.234 129.237L736.516 131.103ZM749.895 133.27C757.385 133.27 763.317 131.558 767.549 127.995L766.261 126.465C762.512 129.622 757.104 131.27 749.895 131.27V133.27ZM767.542 128C771.89 124.402 773.995 119.078 773.995 112.215H771.995C771.995 118.652 770.039 123.338 766.267 126.46L767.542 128ZM773.995 112.215C773.995 108.184 772.928 104.821 770.711 102.221L769.189 103.519C771.031 105.679 771.995 108.546 771.995 112.215H773.995ZM770.722 102.234C768.659 99.7297 765.951 97.6528 762.627 95.9906L761.732 97.7794C764.848 99.3372 767.32 101.25 769.178 103.506L770.722 102.234ZM762.627 95.9906C759.338 94.346 755.599 92.9591 751.416 91.8249L750.893 93.7551C754.971 94.8609 758.582 96.204 761.732 97.7794L762.627 95.9906ZM751.432 91.8291C747.312 90.6422 743.087 89.3503 738.757 87.9533L738.143 89.8567C742.492 91.2597 746.737 92.5578 750.878 93.7509L751.432 91.8291ZM738.757 87.9533C734.458 86.5667 730.264 84.9029 726.173 82.9616L725.316 84.7684C729.485 86.7471 733.761 88.4433 738.143 89.8567L738.757 87.9533ZM726.173 82.9616C722.146 81.0504 718.566 78.5267 715.427 75.3879L714.013 76.8021C717.314 80.1033 721.083 82.7596 725.316 84.7684L726.173 82.9616ZM715.427 75.3879C712.309 72.2698 709.751 68.3911 707.765 63.7327L705.925 64.5173C707.998 69.3789 710.691 73.4802 714.013 76.8021L715.427 75.3879ZM707.769 63.7442C705.874 59.1411 704.905 53.365 704.905 46.38H702.905C702.905 53.535 703.895 59.5889 705.92 64.5057L707.769 63.7442ZM704.905 46.38C704.905 40.8457 705.997 35.4825 708.186 30.283L706.343 29.5069C704.052 34.9475 702.905 40.5743 702.905 46.38H704.905ZM708.186 30.2831C710.371 25.0948 713.58 20.4832 717.824 16.4444L716.445 14.9956C712.009 19.2168 708.639 24.0552 706.343 29.5069L708.186 30.2831ZM717.824 16.4444C722.061 12.4129 727.269 9.15248 733.466 6.67347L732.723 4.81651C726.321 7.37749 720.889 10.7671 716.445 14.9956L717.824 16.4444ZM733.463 6.67487C739.695 4.2093 746.847 2.96498 754.935 2.96498V0.964985C746.643 0.964985 739.234 2.24068 732.727 4.81511L733.463 6.67487ZM754.935 2.96498C763.999 2.96498 772.35 4.38317 779.998 7.20804L780.691 5.33193C772.799 2.41681 764.21 0.964985 754.935 0.964985V2.96498ZM780.008 7.21173C787.736 9.97163 794.229 13.8251 799.507 18.7604L800.873 17.2996C795.371 12.1549 788.633 8.16836 780.681 5.32825L780.008 7.21173ZM799.304 17.5653L791.534 32.3703L793.305 33.2997L801.075 18.4947L799.304 17.5653Z" fill="white"/>
</g>
</svg>
