<svg width="16" height="16" viewBox="0 0 16 16" fill="none" xmlns="http://www.w3.org/2000/svg">
<path d="M0 1.87953C0 1.41923 0.191848 0.958942 0.498802 0.613723C0.844126 0.230146 1.34293 0 1.8801 0H4.41247C5.3717 0 6.17746 0.728796 6.29257 1.64938C6.3693 2.22475 6.48441 2.76176 6.63789 3.29876C6.82974 3.95084 6.67626 4.67964 6.17746 5.17829L5.14149 6.21395C6.21583 8.17019 7.82734 9.78121 9.78417 10.8552L10.8201 9.81957C11.3189 9.32092 12.048 9.16749 12.7002 9.35928C13.2374 9.51271 13.7746 9.62778 14.3501 9.7045C15.3094 9.81957 16 10.6251 16 11.584V14.1156C16 14.6526 15.7698 15.1513 15.3861 15.4965C15.0024 15.8417 14.4652 16.0335 13.9281 15.9952C12.1247 15.8417 10.3597 15.3431 8.7482 14.5759C7.17506 13.8088 5.71703 12.8115 4.45084 11.5457C3.18465 10.2799 2.18705 8.86063 1.41966 7.2496C0.652278 5.60022 0.153477 3.87413 0 2.07131C0 1.9946 0 1.95624 0 1.87953ZM5.44844 3.87413C5.44844 3.79741 5.44844 3.75906 5.41007 3.68234C5.21822 3.06862 5.10312 2.45489 5.02638 1.80281C4.98801 1.49595 4.71942 1.2658 4.41247 1.2658H1.8801C1.68825 1.2658 1.53477 1.34252 1.41966 1.45759C1.30456 1.57267 1.22782 1.76445 1.26619 1.95624C1.8801 8.74555 7.2518 14.1156 14.0432 14.7294C14.235 14.7294 14.3885 14.691 14.542 14.5759C14.6571 14.4609 14.7338 14.3074 14.7338 14.1156V11.584C14.7338 11.2772 14.5036 11.0087 14.1966 10.9703C13.5444 10.8936 12.9305 10.7785 12.3165 10.5867C12.0863 10.51 11.8561 10.5867 11.7026 10.7402L10.0144 12.3895L9.63069 12.1977C7.13669 10.9703 5.06475 8.89899 3.79856 6.36738L3.60671 5.9838L5.2566 4.33442C5.3717 4.18099 5.44844 4.02756 5.44844 3.87413Z" fill="#43298F" fill-opacity="0.2"/>
</svg>
