<svg width="16" height="17" viewBox="0 0 16 17" fill="none" xmlns="http://www.w3.org/2000/svg">
<path d="M7.7728 9.74327C10.444 9.74327 12.6335 7.55377 12.6335 4.88258C12.6335 2.21139 10.444 0 7.7728 0C5.10161 0 2.91211 2.1895 2.91211 4.86069C2.91211 7.53187 5.07971 9.74327 7.7728 9.74327ZM7.7728 1.3137C9.74334 1.3137 11.3417 2.91203 11.3417 4.88258C11.3417 6.85313 9.74334 8.45146 7.7728 8.45146C5.80225 8.45146 4.20391 6.85313 4.20391 4.88258C4.20391 2.91203 5.80225 1.3137 7.7728 1.3137Z" fill="#43298F" fill-opacity="0.2"/>
<path d="M11.6481 9.48059C11.2759 9.80902 10.838 10.0718 10.4001 10.2907C12.4801 11.2103 13.9909 13.2027 14.2317 15.5674H1.3137C1.55454 13.2027 3.0653 11.2322 5.14532 10.2907C4.68553 10.0718 4.26952 9.80902 3.89731 9.48059C1.57644 10.8162 0 13.3341 0 16.2024V16.8592H15.5454V16.2024C15.5454 13.3341 13.969 10.8381 11.6481 9.48059Z" fill="#43298F" fill-opacity="0.2"/>
</svg>
