<svg width="40" height="40" viewBox="0 0 40 40" fill="none" xmlns="http://www.w3.org/2000/svg">
<rect width="40" height="40" rx="20" fill="#43298F"/>
<path d="M19.9999 14.7924C17.118 14.7924 14.7923 17.1181 14.7923 20C14.7923 22.8818 17.118 25.2076 19.9999 25.2076C22.8817 25.2076 25.2075 22.8818 25.2075 20C25.2075 17.1181 22.8817 14.7924 19.9999 14.7924ZM19.9999 23.3845C18.1362 23.3845 16.6153 21.8636 16.6153 20C16.6153 18.1363 18.1362 16.6154 19.9999 16.6154C21.8635 16.6154 23.3844 18.1363 23.3844 20C23.3844 21.8636 21.8635 23.3845 19.9999 23.3845ZM25.4208 13.3654C24.7479 13.3654 24.2046 13.9088 24.2046 14.5816C24.2046 15.2545 24.7479 15.7978 25.4208 15.7978C26.0936 15.7978 26.637 15.257 26.637 14.5816C26.6372 14.4218 26.6059 14.2636 26.5448 14.116C26.4838 13.9683 26.3942 13.8342 26.2812 13.7212C26.1682 13.6082 26.0341 13.5186 25.8864 13.4576C25.7388 13.3965 25.5805 13.3652 25.4208 13.3654ZM30.151 20C30.151 18.5984 30.1637 17.2095 30.085 15.8105C30.0063 14.1855 29.6356 12.7433 28.4473 11.5551C27.2565 10.3642 25.8169 9.99607 24.1919 9.91736C22.7903 9.83865 21.4014 9.85134 20.0024 9.85134C18.6009 9.85134 17.212 9.83865 15.813 9.91736C14.188 9.99607 12.7458 10.3668 11.5575 11.5551C10.3667 12.7459 9.99851 14.1855 9.9198 15.8105C9.84109 17.2121 9.85378 18.6009 9.85378 20C9.85378 21.399 9.84109 22.7904 9.9198 24.1894C9.99851 25.8144 10.3692 27.2566 11.5575 28.4449C12.7483 29.6357 14.188 30.0039 15.813 30.0826C17.2145 30.1613 18.6034 30.1486 20.0024 30.1486C21.404 30.1486 22.7928 30.1613 24.1919 30.0826C25.8169 30.0039 27.2591 29.6332 28.4473 28.4449C29.6382 27.2541 30.0063 25.8144 30.085 24.1894C30.1663 22.7904 30.151 21.4015 30.151 20ZM27.9167 25.9871C27.7313 26.4492 27.5079 26.7945 27.1499 27.15C26.7919 27.508 26.4491 27.7314 25.987 27.9168C24.6514 28.4474 21.4801 28.3281 19.9999 28.3281C18.5196 28.3281 15.3458 28.4474 14.0102 27.9193C13.5481 27.734 13.2028 27.5105 12.8473 27.1525C12.4893 26.7945 12.2659 26.4517 12.0805 25.9896C11.5524 24.6515 11.6718 21.4802 11.6718 20C11.6718 18.5197 11.5524 15.3459 12.0805 14.0103C12.2659 13.5482 12.4893 13.2029 12.8473 12.8474C13.2053 12.492 13.5481 12.266 14.0102 12.0806C15.3458 11.5525 18.5196 11.6718 19.9999 11.6718C21.4801 11.6718 24.654 11.5525 25.9895 12.0806C26.4516 12.266 26.7969 12.4894 27.1524 12.8474C27.5104 13.2054 27.7339 13.5482 27.9192 14.0103C28.4473 15.3459 28.328 18.5197 28.328 20C28.328 21.4802 28.4473 24.6515 27.9167 25.9871Z" fill="white"/>
</svg>
