<svg width="40" height="40" viewBox="0 0 40 40" fill="none" xmlns="http://www.w3.org/2000/svg">
<rect width="40" height="40" rx="20" fill="#EAE151"/>
<path d="M20 14.7923C17.1182 14.7923 14.7924 17.1181 14.7924 19.9999C14.7924 22.8818 17.1182 25.2076 20 25.2076C22.8818 25.2076 25.2076 22.8818 25.2076 19.9999C25.2076 17.1181 22.8818 14.7923 20 14.7923ZM20 23.3845C18.1363 23.3845 16.6154 21.8636 16.6154 19.9999C16.6154 18.1363 18.1363 16.6154 20 16.6154C21.8637 16.6154 23.3846 18.1363 23.3846 19.9999C23.3846 21.8636 21.8637 23.3845 20 23.3845ZM25.4209 13.3654C24.748 13.3654 24.2047 13.9087 24.2047 14.5816C24.2047 15.2544 24.748 15.7978 25.4209 15.7978C26.0937 15.7978 26.6371 15.257 26.6371 14.5816C26.6373 14.4218 26.606 14.2636 26.5449 14.1159C26.4839 13.9683 26.3943 13.8341 26.2813 13.7211C26.1684 13.6082 26.0342 13.5186 25.8866 13.4575C25.7389 13.3965 25.5807 13.3652 25.4209 13.3654ZM30.1512 19.9999C30.1512 18.5984 30.1639 17.2095 30.0852 15.8105C30.0064 14.1855 29.6357 12.7433 28.4475 11.555C27.2566 10.3642 25.817 9.99604 24.192 9.91733C22.7904 9.83862 21.4016 9.85131 20.0025 9.85131C18.601 9.85131 17.2121 9.83862 15.8131 9.91733C14.1881 9.99604 12.7459 10.3667 11.5576 11.555C10.3668 12.7458 9.99863 14.1855 9.91992 15.8105C9.84121 17.2121 9.8539 18.6009 9.8539 19.9999C9.8539 21.399 9.84121 22.7904 9.91992 24.1894C9.99863 25.8144 10.3693 27.2566 11.5576 28.4449C12.7484 29.6357 14.1881 30.0038 15.8131 30.0826C17.2146 30.1613 18.6035 30.1486 20.0025 30.1486C21.4041 30.1486 22.793 30.1613 24.192 30.0826C25.817 30.0038 27.2592 29.6331 28.4475 28.4449C29.6383 27.254 30.0064 25.8144 30.0852 24.1894C30.1664 22.7904 30.1512 21.4015 30.1512 19.9999ZM27.9168 25.9871C27.7314 26.4492 27.508 26.7945 27.15 27.1499C26.792 27.5079 26.4492 27.7314 25.9871 27.9167C24.6516 28.4474 21.4803 28.3281 20 28.3281C18.5197 28.3281 15.3459 28.4474 14.0103 27.9193C13.5482 27.7339 13.2029 27.5105 12.8475 27.1525C12.4895 26.7945 12.266 26.4517 12.0807 25.9896C11.5525 24.6515 11.6719 21.4802 11.6719 19.9999C11.6719 18.5197 11.5525 15.3458 12.0807 14.0103C12.266 13.5482 12.4895 13.2029 12.8475 12.8474C13.2055 12.4919 13.5482 12.266 14.0103 12.0806C15.3459 11.5525 18.5197 11.6718 20 11.6718C21.4803 11.6718 24.6541 11.5525 25.9896 12.0806C26.4518 12.266 26.7971 12.4894 27.1525 12.8474C27.5105 13.2054 27.734 13.5482 27.9193 14.0103C28.4475 15.3458 28.3281 18.5197 28.3281 19.9999C28.3281 21.4802 28.4475 24.6515 27.9168 25.9871Z" fill="#43298F"/>
</svg>
