<svg width="40" height="40" viewBox="0 0 40 40" fill="none" xmlns="http://www.w3.org/2000/svg">
<rect width="40" height="40" rx="20" fill="#EAE151"/>
<path fill-rule="evenodd" clip-rule="evenodd" d="M28.237 11.8066C27.2321 10.7951 26.0364 9.99301 24.7193 9.44688C23.4022 8.90075 21.9899 8.62141 20.564 8.62503C14.5852 8.62503 9.71804 13.491 9.71563 19.4722C9.71563 21.3838 10.2147 23.2495 11.1632 24.8952L9.625 30.5152L15.3755 29.006C16.9661 29.8719 18.7482 30.3259 20.5592 30.3267H20.564C26.5417 30.3267 31.4088 25.4607 31.4113 19.4795C31.4154 18.0542 31.1369 16.6423 30.5921 15.3253C30.0473 14.0083 29.2468 12.8124 28.237 11.8066ZM20.564 28.4961H20.5604C18.9455 28.4962 17.3603 28.0618 15.9712 27.2382L15.6425 27.0424L12.2302 27.9378L13.14 24.6113L12.9262 24.2705C12.0233 22.8331 11.5453 21.1697 11.5475 19.4722C11.5499 14.5012 15.5942 10.4569 20.5677 10.4569C21.7521 10.4542 22.9254 10.6865 24.0195 11.1404C25.1135 11.5942 26.1068 12.2605 26.9416 13.1007C27.781 13.9369 28.4462 14.9312 28.899 16.0261C29.3517 17.1209 29.583 18.2947 29.5794 19.4795C29.577 24.4506 25.5327 28.4961 20.564 28.4961ZM25.5098 21.7427C25.2379 21.6062 23.9063 20.9512 23.6574 20.8606C23.4097 20.77 23.2296 20.7253 23.0484 20.9959C22.8671 21.2666 22.3475 21.8768 22.1892 22.0581C22.031 22.2393 21.8727 22.2611 21.602 22.1257C21.3313 21.9904 20.4577 21.704 19.4222 20.7809C18.6162 20.0619 18.0725 19.175 17.9142 18.9031C17.7559 18.6312 17.8973 18.485 18.0338 18.3497C18.1558 18.2289 18.3045 18.0331 18.4398 17.8748C18.5751 17.7165 18.6198 17.6042 18.7105 17.4229C18.8011 17.2417 18.7564 17.0834 18.6875 16.948C18.6198 16.8115 18.0773 15.4775 17.8513 14.935C17.6326 14.4093 17.4091 14.4794 17.2423 14.4722C17.0696 14.4651 16.8968 14.4619 16.724 14.4625C16.5865 14.466 16.4513 14.4979 16.3267 14.5561C16.2022 14.6143 16.091 14.6976 16.0002 14.8008C15.7513 15.0727 15.0516 15.7276 15.0516 17.0616C15.0516 18.3956 16.0231 19.6849 16.1585 19.8662C16.2938 20.0474 18.07 22.7843 20.7888 23.9588C21.4365 24.2379 21.9415 24.4047 22.3343 24.5303C22.9831 24.7369 23.574 24.7067 24.0416 24.6379C24.5624 24.5605 25.6451 23.9829 25.871 23.3498C26.097 22.7166 26.097 22.1741 26.0293 22.0605C25.9617 21.9469 25.7792 21.878 25.5098 21.7427Z" fill="#43298F"/>
</svg>
